<svg width="13" height="11" viewBox="0 0 13 11" fill="none" xmlns="http://www.w3.org/2000/svg">
<path d="M1.75986 10.3485H11.2401C12.2096 10.3485 12.8139 9.38439 12.3292 8.6166L7.58904 1.10612C7.10432 0.338326 5.89568 0.338326 5.41096 1.10612L0.670828 8.6166C0.186113 9.38439 0.790433 10.3485 1.75986 10.3485ZM6.5 6.30746C6.15377 6.30746 5.8705 6.04768 5.8705 5.73017V4.5756C5.8705 4.25809 6.15377 3.99832 6.5 3.99832C6.84622 3.99832 7.1295 4.25809 7.1295 4.5756V5.73017C7.1295 6.04768 6.84622 6.30746 6.5 6.30746ZM7.1295 8.6166H5.8705V7.46203H7.1295V8.6166Z" fill="white"/>
</svg>
