<svg width="12" height="16" viewBox="0 0 12 16" fill="none" xmlns="http://www.w3.org/2000/svg">
<path d="M8.50433 6.13575V0.5H11.9996C11.9996 0.534565 11.9996 0.570786 11.9996 0.6068C11.9996 2.62461 12.0007 4.64242 11.9992 6.66022C11.9984 7.7781 11.0786 8.73122 9.95078 8.80015C9.16316 8.84816 8.52321 8.58427 8.03449 7.96728C7.65757 7.49123 7.18353 7.16028 6.56707 7.06796C5.5934 6.92205 4.73929 7.13999 4.09053 7.91491C3.75556 8.3152 3.60265 8.79435 3.55357 9.30475C3.494 9.92423 3.53909 10.5338 3.81617 11.1036C4.24889 11.9942 4.98512 12.4371 5.97431 12.4744C6.75773 12.504 7.4044 12.2175 7.90612 11.6175C8.10455 11.3803 8.31849 11.1578 8.58341 10.99C9.41088 10.4651 10.5328 10.5669 11.2728 11.2342C11.7507 11.6651 11.9875 12.203 11.9919 12.8393C11.9973 13.6324 11.9973 14.4258 11.9996 15.2191C11.9996 15.2601 11.9996 15.3011 11.9996 15.3493H8.50706V13.3749C8.47812 13.4327 8.45966 13.4703 8.44057 13.508C7.96884 14.4384 7.21331 15.045 6.20587 15.3079C4.53835 15.7432 3.01765 15.454 1.72159 14.2846C1.02123 13.6525 0.580335 12.8554 0.309336 11.964C0.0387562 11.0725 -0.0375934 10.1596 0.016103 9.23397C0.0733652 8.24918 0.283746 7.30226 0.768482 6.43069C1.47073 5.16772 2.52117 4.34996 3.96929 4.08875C4.96205 3.90972 5.94033 3.98051 6.86408 4.42509C7.59968 4.77902 8.11944 5.34344 8.46972 6.06682C8.47728 6.08214 8.48504 6.09746 8.50454 6.13595L8.50433 6.13575Z" fill="black"/>
</svg>
