<svg width="18" height="18" viewBox="0 0 18 18" fill="none" xmlns="http://www.w3.org/2000/svg">
<path fill-rule="evenodd" clip-rule="evenodd" d="M17.0499 8.5303C17.4641 8.5303 17.7999 8.19452 17.7999 7.7803L17.7999 0.75C17.7999 0.335787 17.4641 2.24452e-06 17.0499 1.90735e-06L10.0195 0C9.60532 0 9.26953 0.335787 9.26953 0.75C9.26953 1.16421 9.60532 1.5 10.0195 1.5H15.2392L10.0195 6.71965C9.72658 7.01254 9.72658 7.48741 10.0195 7.78031C10.3124 8.0732 10.7872 8.0732 11.0801 7.78031L16.2999 2.56066L16.2999 7.78031C16.2999 8.19452 16.6357 8.5303 17.0499 8.5303Z" fill="black"/>
<path fill-rule="evenodd" clip-rule="evenodd" d="M1.0204 8.99997C0.606181 8.99997 0.270396 9.33576 0.270397 9.74997L0.270419 16.7803C0.27042 17.1945 0.606204 17.5303 1.02042 17.5303L8.05078 17.5303C8.46499 17.5303 8.80078 17.1945 8.80078 16.7803C8.80078 16.3661 8.46499 16.0303 8.05078 16.0303L2.83107 16.0303L8.05084 10.8106C8.34374 10.5177 8.34374 10.0429 8.05084 9.74997C7.75795 9.45707 7.28308 9.45707 6.99018 9.74997L1.77041 14.9696L1.77039 9.74997C1.77039 9.33575 1.43461 8.99997 1.0204 8.99997Z" fill="black"/>
</svg>
