<svg width="19" height="19" viewBox="0 0 19 19" fill="none" xmlns="http://www.w3.org/2000/svg">
<path d="M12.6667 2.11111L9.5 0L7.38889 1.05556L6.56257 2.11111L3.16667 3.16667L2.11111 6.33333L1.05556 7.38889L0 9.5L1.05556 11.6111L2.11111 12.6667V14.7778L3.16667 15.8333L5.27778 16.8889L7.38889 17.9444L9.5 19L12.4895 16.8889H14.7778L15.8333 15.8333L17.2496 11.6111L18.2083 9.5V8.70833L16.8889 6.77467L15.8333 3.16667L12.6667 2.11111Z" fill="white"/>
<path d="M13.6555 7.66636C13.8974 7.4244 13.8974 7.03212 13.6555 6.79016C13.4135 6.54821 13.0212 6.54821 12.7793 6.79016L8.26087 11.3086L6.22071 9.26842C5.97875 9.02647 5.58647 9.02647 5.34451 9.26842C5.10255 9.51038 5.10255 9.90266 5.34451 10.1446L7.82277 12.6229C8.06473 12.8648 8.45701 12.8648 8.69897 12.6229L13.6555 7.66636Z" fill="#4CDB62"/>
<path fill-rule="evenodd" clip-rule="evenodd" d="M11.2645 0.578162C10.2145 -0.19272 8.78553 -0.192721 7.73547 0.578161L6.59933 1.41224C6.37295 1.57843 6.10976 1.68745 5.83217 1.73L4.43902 1.9436C3.15142 2.14101 2.14101 3.15142 1.9436 4.43902L1.73 5.83217C1.68745 6.10976 1.57843 6.37295 1.41224 6.59933L0.578162 7.73547C-0.19272 8.78553 -0.192721 10.2145 0.578162 11.2645L1.41224 12.4007C1.57843 12.627 1.68745 12.8902 1.73 13.1678L1.9436 14.561C2.14101 15.8486 3.15142 16.859 4.43902 17.0564L5.83217 17.27C6.10976 17.3126 6.37295 17.4216 6.59933 17.5878L7.73547 18.4218C8.78553 19.1927 10.2145 19.1927 11.2645 18.4218L12.4007 17.5878C12.627 17.4216 12.8902 17.3126 13.1678 17.27L14.561 17.0564C15.8486 16.859 16.859 15.8486 17.0564 14.561L17.27 13.1678C17.3126 12.8902 17.4216 12.627 17.5878 12.4007L18.4218 11.2645C19.1927 10.2145 19.1927 8.78553 18.4218 7.73547L17.5878 6.59933C17.4216 6.37295 17.3126 6.10976 17.27 5.83217L17.0564 4.43902C16.859 3.15142 15.8486 2.14101 14.561 1.9436L13.1678 1.73C12.8902 1.68745 12.627 1.57843 12.4007 1.41224L11.2645 0.578162ZM8.46877 1.57702C9.08245 1.1265 9.91755 1.1265 10.5312 1.57702L11.6674 2.4111C12.0547 2.69547 12.5051 2.882 12.98 2.95482L14.3732 3.16842C15.1257 3.28379 15.7162 3.8743 15.8316 4.6268L16.0452 6.01996C16.118 6.49493 16.3045 6.94527 16.5889 7.33262L17.423 8.46877C17.8735 9.08245 17.8735 9.91755 17.423 10.5312L16.5889 11.6674C16.3045 12.0547 16.118 12.5051 16.0452 12.98L15.8316 14.3732C15.7162 15.1257 15.1257 15.7162 14.3732 15.8316L12.98 16.0452C12.5051 16.118 12.0547 16.3045 11.6674 16.5889L10.5312 17.423C9.91755 17.8735 9.08245 17.8735 8.46877 17.423L7.33262 16.5889C6.94527 16.3045 6.49493 16.118 6.01996 16.0452L4.6268 15.8316C3.8743 15.7162 3.28379 15.1257 3.16842 14.3732L2.95482 12.98C2.882 12.5051 2.69547 12.0547 2.4111 11.6674L1.57702 10.5312C1.1265 9.91755 1.1265 9.08245 1.57702 8.46877L2.4111 7.33262C2.69547 6.94527 2.882 6.49493 2.95482 6.01996L3.16842 4.6268C3.28379 3.8743 3.8743 3.28379 4.6268 3.16842L6.01996 2.95482C6.49493 2.882 6.94527 2.69547 7.33262 2.4111L8.46877 1.57702Z" fill="#4CDB62"/>
</svg>
