<svg width="12" height="20" viewBox="0 0 12 20" fill="none" xmlns="http://www.w3.org/2000/svg">
<mask id="mask0_122_1923" style="mask-type:luminance" maskUnits="userSpaceOnUse" x="1" y="0" width="10" height="6">
<path d="M10.4298 5.48094H1.60547C1.60547 4.93157 2.40314 3.27151 3.99849 0.5C3.99849 0.5 4.21938 1.96175 4.66116 4.88489H7.3572L8.01874 0.5C9.62647 3.30811 10.4301 4.96854 10.4301 5.48094H10.4298Z" fill="white"/>
</mask>
<g mask="url(#mask0_122_1923)">
<path d="M10.6177 0.313477H1.41797V5.66789H10.6177V0.313477Z" fill="white"/>
</g>
<mask id="mask1_122_1923" style="mask-type:luminance" maskUnits="userSpaceOnUse" x="0" y="4" width="12" height="16">
<path d="M6.00037 19.3764L0 15.1951V5.43672C0 5.43672 2.21864 4.62256 6.00825 4.62256C9.79786 4.62256 12 5.43672 12 5.43672V15.1954L6.00037 19.3768V19.3764Z" fill="white"/>
</mask>
<g mask="url(#mask1_122_1923)">
<path d="M12.1875 4.43604H-0.1875V19.5634H12.1875V4.43604Z" fill="white"/>
</g>
<mask id="mask2_122_1923" style="mask-type:luminance" maskUnits="userSpaceOnUse" x="0" y="5" width="7" height="14">
<path d="M6.00382 18.7886L0.386719 14.8911V5.82854C0.386719 5.82854 2.48723 5.07227 6.00382 5.07227V18.7886Z" fill="white"/>
</mask>
<g mask="url(#mask2_122_1923)">
<path d="M6.19134 4.88574H0.199219V18.9756H6.19134V4.88574Z" fill="#DADADA"/>
</g>
<mask id="mask3_122_1923" style="mask-type:luminance" maskUnits="userSpaceOnUse" x="6" y="5" width="6" height="14">
<path d="M6.0075 5.07264C6.00488 5.07264 6.00263 5.07264 6 5.07264V18.7774L11.5676 14.8911V5.82854C11.5676 5.82854 9.5241 5.07227 6.0075 5.07227V5.07264Z" fill="white"/>
</mask>
<g mask="url(#mask3_122_1923)">
<path d="M11.7551 4.88574H5.8125V18.964H11.7551V4.88574Z" fill="#C5C5C5"/>
</g>
<mask id="mask4_122_1923" style="mask-type:luminance" maskUnits="userSpaceOnUse" x="5" y="12" width="5" height="7">
<path d="M9.04154 16.6562L8.56788 12.563H5.96484V18.7984L6.00235 18.8335C7.01491 18.1445 8.02822 17.4188 9.04154 16.6562Z" fill="white"/>
</mask>
<g mask="url(#mask4_122_1923)">
<path d="M9.22906 12.376H5.77734V19.02H9.22906V12.376Z" fill="#393A62"/>
</g>
<mask id="mask5_122_1923" style="mask-type:luminance" maskUnits="userSpaceOnUse" x="2" y="12" width="5" height="7">
<path d="M2.96484 16.6889L6.00253 18.8337L6.00403 12.4385H3.37324L2.96484 16.6889Z" fill="white"/>
</mask>
<g mask="url(#mask5_122_1923)">
<path d="M6.19156 12.2515H2.77734V19.0202H6.19156V12.2515Z" fill="#525379"/>
</g>
<mask id="mask6_122_1923" style="mask-type:luminance" maskUnits="userSpaceOnUse" x="4" y="15" width="4" height="2">
<path d="M7.29785 15.4775C7.29785 16.1808 6.62693 16.5292 6.01114 16.5292C5.39536 16.5292 4.71094 16.1808 4.71094 15.4775" fill="white"/>
</mask>
<g mask="url(#mask6_122_1923)">
<path d="M7.485 15.291H4.52344V16.7162H7.485V15.291Z" fill="#BB9275"/>
</g>
<mask id="mask7_122_1923" style="mask-type:luminance" maskUnits="userSpaceOnUse" x="5" y="14" width="2" height="2">
<path d="M6.00811 15.8409C5.51383 15.8409 5.27344 15.4861 5.27344 14.7563H5.50895C5.50895 15.6105 5.84572 15.6105 6.00773 15.6105C6.16974 15.6105 6.50651 15.6105 6.50651 14.7563H6.74203C6.74203 15.4861 6.50164 15.8409 6.00773 15.8409H6.00811Z" fill="white"/>
</mask>
<g mask="url(#mask7_122_1923)">
<path d="M6.92993 14.5693H5.08594V16.0274H6.92993V14.5693Z" fill="white"/>
</g>
<mask id="mask8_122_1923" style="mask-type:luminance" maskUnits="userSpaceOnUse" x="6" y="10" width="4" height="6">
<path d="M6.00037 14.9347C6.15226 15.326 6.44628 15.5217 6.88205 15.5217C7.31783 15.5217 7.75398 15.3021 7.9565 14.7588C8.23964 13.9991 8.23664 12.9415 8.23664 12.9415C8.23664 12.9415 9.49484 11.3998 9.49484 10.8784H6V14.9347H6.00037Z" fill="white"/>
</mask>
<g mask="url(#mask8_122_1923)">
<path d="M9.68237 10.6914H5.8125V15.7078H9.68237V10.6914Z" fill="#C3977D"/>
</g>
<mask id="mask9_122_1923" style="mask-type:luminance" maskUnits="userSpaceOnUse" x="2" y="10" width="4" height="6">
<path d="M2.45508 10.8784C2.45508 11.4819 3.70241 12.9415 3.70241 12.9415C3.70241 12.9415 3.69941 13.9987 3.98292 14.7588C4.18506 15.3014 4.63096 15.5217 5.05737 15.5217C5.48377 15.5217 5.80741 15.326 6.00055 14.9347V10.8784H2.45508Z" fill="white"/>
</mask>
<g mask="url(#mask9_122_1923)">
<path d="M6.18807 10.6919H2.26758V15.7083H6.18807V10.6919Z" fill="#D7B6A0"/>
</g>
<mask id="mask10_122_1923" style="mask-type:luminance" maskUnits="userSpaceOnUse" x="5" y="4" width="5" height="11">
<path d="M9.34348 7.40687C8.37329 6.43361 8.13065 4.40381 8.13065 4.40381C7.94952 5.04319 7.55574 6.92883 7.55574 6.92883C7.55574 6.92883 6.79107 6.68682 5.96752 6.6857C5.94052 6.6857 5.94052 9.2264 5.96752 14.3074L6.75169 13.7528L6.89758 11.0613L7.73238 11.9934L8.80794 12.3008C8.80794 12.3008 9.21034 12.0199 9.21034 12.0211C9.38136 11.7869 9.43798 11.5875 9.47924 11.484C9.6285 11.1076 9.29322 8.22737 9.29322 8.22737C9.17397 7.9835 9.34348 7.40649 9.34348 7.40649V7.40687Z" fill="white"/>
</mask>
<g mask="url(#mask10_122_1923)">
<path d="M9.70464 4.21729H5.75977V14.4944H9.70464V4.21729Z" fill="#393A62"/>
</g>
<mask id="mask11_122_1923" style="mask-type:luminance" maskUnits="userSpaceOnUse" x="2" y="4" width="5" height="11">
<path d="M4.46374 6.92883C4.46374 6.92883 4.06996 5.04319 3.88883 4.40381C3.88883 4.40381 3.64656 6.43323 2.676 7.40687C2.676 7.40687 2.84514 7.98387 2.72625 8.22775C2.72625 8.22775 2.39098 11.1079 2.54024 11.4836C2.58149 11.5871 2.6385 11.7865 2.80913 12.0207C2.80913 12.0196 3.21191 12.3004 3.21191 12.3004L4.2871 11.9927L5.1219 11.0605L5.26816 13.7521L6.00133 14.2921V6.67113C5.17478 6.67263 4.46374 6.92845 4.46374 6.92845V6.92883Z" fill="white"/>
</mask>
<g mask="url(#mask11_122_1923)">
<path d="M6.1904 4.21729H2.31641V14.4794H6.1904V4.21729Z" fill="#525379"/>
</g>
<mask id="mask12_122_1923" style="mask-type:luminance" maskUnits="userSpaceOnUse" x="1" y="1" width="10" height="16">
<path d="M8.66912 2.52361C8.83 2.81715 10.2135 5.53077 10.2135 6.47042L9.59993 8.10621C9.70381 9.02905 9.91007 11.0346 9.75444 11.4263C9.65806 11.6687 9.29128 12.1673 8.97776 12.571L9.40679 16.4024L8.827 16.811L8.50448 14.0115C8.46023 14.2957 8.39348 14.5989 8.29185 14.8712C8.15759 15.2316 7.9202 15.505 7.61643 15.6667C7.5988 16.5309 6.78425 16.9974 6.01658 16.9974C5.24891 16.9974 4.42123 16.5313 4.40323 15.6674C4.09908 15.5054 3.86132 15.232 3.72669 14.8712C3.62918 14.6094 3.56355 14.3192 3.51892 14.0447L3.21065 16.8622L2.62749 16.4469L3.04864 12.5822C2.7325 12.1766 2.3586 11.6706 2.26147 11.4256C2.10546 11.0338 2.30385 9.02867 2.4081 8.10546L1.75781 6.41253V6.35726C1.75781 5.41761 3.17765 2.81641 3.33891 2.52286L3.79869 1.69862C4.07883 3.60778 4.21872 4.56349 4.21834 4.56498L4.44486 6.11226L4.74262 6.59142C5.02877 6.49693 5.5148 6.36547 6.00683 6.36547C6.49886 6.36547 6.98864 6.49731 7.27591 6.59142L7.57368 6.11189L8.21872 1.69824L8.66912 2.52249V2.52361ZM6.01658 16.383C6.35635 16.383 6.84013 16.2329 6.96089 15.8344C6.94776 15.8348 6.93539 15.8359 6.92264 15.8359C6.85663 15.8359 6.79475 15.8299 6.73475 15.8217C6.55961 16.06 6.2866 16.1324 6.0102 16.1324C5.73381 16.1324 5.46192 16.0596 5.28678 15.8213C5.2264 15.8295 5.16378 15.8359 5.0974 15.8359C5.08465 15.8359 5.07227 15.8348 5.05989 15.8344C5.18178 16.2329 5.67231 16.383 6.01695 16.383H6.01658ZM5.61868 15.7283C5.72406 15.8056 5.85419 15.8486 6.00983 15.8486C6.16546 15.8486 6.29447 15.8053 6.39948 15.7283C6.31547 15.6917 6.23972 15.6484 6.17259 15.601C6.11184 15.6185 6.05408 15.6181 6.00945 15.6181C5.96483 15.6181 5.90595 15.6181 5.84482 15.6006C5.77806 15.6484 5.70231 15.6917 5.6183 15.7283H5.61868ZM8.03233 12.7559C8.44973 12.2487 9.0779 11.4323 9.16903 11.2038C9.23766 10.9685 9.12065 9.40849 8.97176 8.10135L8.96351 8.0289L9.08652 7.70398C8.68037 7.28047 8.39723 6.70047 8.20372 6.1526L8.17859 6.32476L7.53767 7.35516L7.28716 7.25097C7.28116 7.24835 6.62749 6.98057 6.0072 6.98057C5.38691 6.98057 4.73962 7.24798 4.73362 7.25059L4.48273 7.35591L3.84107 6.32514L3.82194 6.19293C3.62618 6.73558 3.34266 7.30549 2.93876 7.71967L3.05652 8.02927L3.04827 8.10173C2.89938 9.40886 2.782 10.9688 2.85288 11.2097C2.94176 11.4327 3.56993 12.2495 3.98695 12.7559L4.05671 12.8407V12.949C4.05633 12.9591 4.05746 13.9622 4.31772 14.6602C4.50673 15.1666 4.92564 15.2204 5.0974 15.2204C5.52905 15.2204 5.71168 14.8331 5.71918 14.8167C5.82044 14.6221 5.87069 14.3024 5.87069 13.8576H6.13171C6.13171 14.215 6.18609 14.5355 6.29485 14.8189C6.3016 14.8331 6.48873 15.2215 6.92226 15.2215C7.09365 15.2215 7.51292 15.1666 7.70156 14.6606C7.96257 13.9599 7.96295 12.9591 7.96295 12.9493V12.841L8.03233 12.7559Z" fill="white"/>
</mask>
<g mask="url(#mask12_122_1923)">
<path d="M10.3975 1.5127H1.56641V17.1842H10.3975V1.5127Z" fill="#312D50"/>
</g>
<mask id="mask13_122_1923" style="mask-type:luminance" maskUnits="userSpaceOnUse" x="6" y="10" width="3" height="1">
<path d="M7.95945 10.0298H6.70312V10.0429C6.70312 10.472 7.08265 10.8197 7.52743 10.8197C7.9722 10.8197 8.3521 10.472 8.3521 10.0429V10.0298H7.95945Z" fill="white"/>
</mask>
<g mask="url(#mask13_122_1923)">
<path d="M8.53963 9.84326H6.51562V11.0062H8.53963V9.84326Z" fill="#312D50"/>
</g>
<mask id="mask14_122_1923" style="mask-type:luminance" maskUnits="userSpaceOnUse" x="7" y="10" width="1" height="1">
<path d="M7.01367 10.0298V10.0429C7.01367 10.2979 7.22368 10.5048 7.48508 10.5048C7.74647 10.5048 7.95611 10.2979 7.95611 10.0429V10.0298H7.01367Z" fill="white"/>
</mask>
<g mask="url(#mask14_122_1923)">
<path d="M8.14363 9.84326H6.82617V10.6918H8.14363V9.84326Z" fill="white"/>
</g>
<mask id="mask15_122_1923" style="mask-type:luminance" maskUnits="userSpaceOnUse" x="7" y="10" width="1" height="1">
<path d="M7.41174 10.0298C7.40949 10.0298 7.40762 10.0309 7.40574 10.0313C7.43312 10.0369 7.44812 10.0978 7.44249 10.1381C7.43349 10.1997 7.37986 10.2427 7.31836 10.2438C7.33636 10.3245 7.40349 10.3894 7.49312 10.4018C7.6075 10.4174 7.71288 10.3409 7.72901 10.2292C7.74064 10.1471 7.70013 10.0298 7.63263 10.0298H7.41174Z" fill="white"/>
</mask>
<g mask="url(#mask15_122_1923)">
<path d="M7.91841 9.84277H7.13086V10.5901H7.91841V9.84277Z" fill="#312D50"/>
</g>
<mask id="mask16_122_1923" style="mask-type:luminance" maskUnits="userSpaceOnUse" x="3" y="10" width="3" height="1">
<path d="M4.9243 10.0298H3.66797V10.0429C3.66797 10.472 4.04749 10.8197 4.49227 10.8197C4.93705 10.8197 5.31695 10.472 5.31695 10.0429V10.0298H4.9243Z" fill="white"/>
</mask>
<g mask="url(#mask16_122_1923)">
<path d="M5.50447 9.84326H3.48047V11.0062H5.50447V9.84326Z" fill="#312D50"/>
</g>
<mask id="mask17_122_1923" style="mask-type:luminance" maskUnits="userSpaceOnUse" x="3" y="10" width="2" height="1">
<path d="M3.98438 10.0303V10.0433C3.98438 10.2984 4.19476 10.5053 4.4554 10.5053C4.71605 10.5053 4.92681 10.2984 4.92681 10.0433V10.0303H3.98438Z" fill="white"/>
</mask>
<g mask="url(#mask17_122_1923)">
<path d="M5.11433 9.84326H3.79688V10.6918H5.11433V9.84326Z" fill="white"/>
</g>
<mask id="mask18_122_1923" style="mask-type:luminance" maskUnits="userSpaceOnUse" x="4" y="10" width="1" height="1">
<path d="M4.59747 10.0298H4.37658C4.37471 10.0298 4.37246 10.0309 4.37096 10.0313C4.39834 10.0369 4.41334 10.0978 4.40771 10.1381C4.39871 10.1997 4.34546 10.2427 4.2832 10.2438C4.3012 10.3245 4.36871 10.3894 4.45796 10.4018C4.57197 10.4174 4.6781 10.3409 4.69385 10.2292C4.70548 10.1471 4.66535 10.0298 4.59785 10.0298H4.59747Z" fill="white"/>
</mask>
<g mask="url(#mask18_122_1923)">
<path d="M4.88363 9.84277H4.0957V10.5901H4.88363V9.84277Z" fill="#312D50"/>
</g>
<mask id="mask19_122_1923" style="mask-type:luminance" maskUnits="userSpaceOnUse" x="6" y="9" width="3" height="1">
<path d="M7.86462 9.66383C7.9175 9.60744 8.36527 9.11035 7.76636 9.11035C7.2252 9.11035 6.83555 9.53723 6.73242 9.66383H7.86462Z" fill="white"/>
</mask>
<g mask="url(#mask19_122_1923)">
<path d="M8.26253 8.92334H6.54492V9.85029H8.26253V8.92334Z" fill="#C3977D"/>
</g>
<mask id="mask20_122_1923" style="mask-type:luminance" maskUnits="userSpaceOnUse" x="3" y="9" width="3" height="1">
<path d="M5.27981 9.66334C5.17668 9.53711 4.78741 9.10986 4.24587 9.10986C3.64734 9.10986 4.09511 9.60658 4.14762 9.66334H5.27981Z" fill="white"/>
</mask>
<g mask="url(#mask20_122_1923)">
<path d="M5.46761 8.92334H3.75V9.85029H5.46761V8.92334Z" fill="#D7B6A0"/>
</g>
<mask id="mask21_122_1923" style="mask-type:luminance" maskUnits="userSpaceOnUse" x="2" y="3" width="2" height="5">
<path d="M2.40234 6.30813C2.43797 5.82075 2.95663 4.65292 3.45128 3.66846L3.58329 4.56852C3.53304 4.90501 3.30315 6.22447 2.68661 7.05656L2.40234 6.3085V6.30813Z" fill="white"/>
</mask>
<g mask="url(#mask21_122_1923)">
<path d="M3.77082 3.48145H2.21484V7.24264H3.77082V3.48145Z" fill="#D7B6A0"/>
</g>
<mask id="mask22_122_1923" style="mask-type:luminance" maskUnits="userSpaceOnUse" x="8" y="3" width="2" height="5">
<path d="M8.44336 4.4983L8.56487 3.66846C9.05952 4.65255 9.57856 5.82075 9.61418 6.30813L9.33666 7.03863C8.67025 6.12289 8.46136 4.63425 8.44336 4.4983Z" fill="white"/>
</mask>
<g mask="url(#mask22_122_1923)">
<path d="M9.80171 3.48145H8.25586V7.22509H9.80171V3.48145Z" fill="#C3977D"/>
</g>
</svg>
