<svg width="13" height="11" viewBox="0 0 13 11" fill="none" xmlns="http://www.w3.org/2000/svg">
<path fill-rule="evenodd" clip-rule="evenodd" d="M6.26953 0.765137C6.42231 0.765137 6.56184 0.840875 6.62945 0.960507L8.26614 3.85633L11.9259 4.3207C12.0771 4.33988 12.2027 4.43235 12.2499 4.55923C12.2971 4.68611 12.2577 4.82539 12.1483 4.91851L9.5001 7.17259L10.1253 10.3554C10.1511 10.4869 10.0892 10.6198 9.96559 10.6982C9.84199 10.7766 9.67812 10.787 9.5429 10.7249L6.26953 9.22215L2.99617 10.7249C2.86094 10.787 2.69708 10.7766 2.57348 10.6982C2.44988 10.6198 2.38798 10.4869 2.4138 10.3554L3.03896 7.17259L0.390752 4.91851C0.281349 4.82539 0.241976 4.68611 0.289187 4.55923C0.336398 4.43235 0.462005 4.33988 0.613195 4.3207L4.27293 3.85633L5.90961 0.960507C5.97722 0.840875 6.11675 0.765137 6.26953 0.765137ZM6.26953 1.90755L4.89938 4.33178C4.84092 4.43522 4.72791 4.50692 4.59718 4.52351L1.53344 4.91225L3.75038 6.79926C3.84498 6.87978 3.88814 6.99578 3.86581 7.10948L3.34246 9.77397L6.08276 8.51597C6.19969 8.46229 6.33938 8.46229 6.4563 8.51597L9.1966 9.77397L8.67325 7.10948C8.65092 6.99578 8.69408 6.87978 8.78868 6.79926L11.0056 4.91225L7.94188 4.52351C7.81115 4.50692 7.69814 4.43522 7.63968 4.33178L6.26953 1.90755Z" fill="#24292F"/>
</svg>
