<svg width="18" height="18" viewBox="0 0 18 18" fill="none" xmlns="http://www.w3.org/2000/svg">
<path d="M11.5043 7.13575V1.5H14.9996C14.9996 1.53456 14.9996 1.57079 14.9996 1.6068C14.9996 3.62461 15.0007 5.64242 14.9992 7.66022C14.9984 8.7781 14.0786 9.73122 12.9508 9.80015C12.1632 9.84816 11.5232 9.58427 11.0345 8.96728C10.6576 8.49123 10.1835 8.16028 9.56707 8.06796C8.5934 7.92205 7.73929 8.13999 7.09053 8.91491C6.75556 9.3152 6.60265 9.79435 6.55357 10.3048C6.494 10.9242 6.53909 11.5338 6.81617 12.1036C7.24889 12.9942 7.98512 13.4371 8.97431 13.4744C9.75773 13.504 10.4044 13.2175 10.9061 12.6175C11.1045 12.3803 11.3185 12.1578 11.5834 11.99C12.4109 11.4651 13.5328 11.5669 14.2728 12.2342C14.7507 12.6651 14.9875 13.203 14.9919 13.8393C14.9973 14.6324 14.9973 15.4258 14.9996 16.2191C14.9996 16.2601 14.9996 16.3011 14.9996 16.3493H11.5071V14.3749C11.4781 14.4327 11.4597 14.4703 11.4406 14.508C10.9688 15.4384 10.2133 16.045 9.20587 16.3079C7.53835 16.7432 6.01765 16.454 4.72159 15.2846C4.02123 14.6525 3.58034 13.8554 3.30934 12.964C3.03876 12.0725 2.96241 11.1596 3.0161 10.234C3.07337 9.24918 3.28375 8.30226 3.76848 7.43069C4.47073 6.16772 5.52117 5.34996 6.96929 5.08875C7.96205 4.90972 8.94033 4.98051 9.86408 5.42509C10.5997 5.77902 11.1194 6.34344 11.4697 7.06682C11.4773 7.08214 11.485 7.09746 11.5045 7.13595L11.5043 7.13575Z" fill="black"/>
</svg>
