<svg width="18" height="18" viewBox="0 0 18 18" fill="none" xmlns="http://www.w3.org/2000/svg">
    <path d="M8.9461 1.5C5.13809 1.5 5.37586 3.15998 5.37586 3.15998L5.38008 4.87978H9.014V5.39611H3.93675C3.93675 5.39611 1.5 5.11831 1.5 8.98059C1.5 12.843 3.62685 12.706 3.62685 12.706H4.89615V10.9137C4.89615 10.9137 4.82773 8.77577 6.98906 8.77577H10.5933C10.5933 8.77577 12.6182 8.80866 12.6182 6.80853V3.50143C12.6182 3.50143 12.9257 1.5 8.9461 1.5ZM6.94236 2.65653C7.02823 2.65645 7.11328 2.67339 7.19263 2.70639C7.27198 2.73939 7.34408 2.78779 7.4048 2.84883C7.46552 2.90987 7.51367 2.98234 7.5465 3.0621C7.57932 3.14187 7.59618 3.22735 7.5961 3.31367C7.59618 3.39999 7.57932 3.48548 7.5465 3.56524C7.51367 3.64501 7.46552 3.71748 7.4048 3.77852C7.34408 3.83956 7.27198 3.88796 7.19263 3.92095C7.11328 3.95395 7.02823 3.9709 6.94236 3.97082C6.85649 3.9709 6.77145 3.95395 6.6921 3.92095C6.61275 3.88796 6.54065 3.83956 6.47993 3.77852C6.41921 3.71748 6.37105 3.64501 6.33823 3.56524C6.3054 3.48548 6.28855 3.39999 6.28862 3.31367C6.28855 3.22735 6.3054 3.14187 6.33823 3.0621C6.37105 2.98234 6.41921 2.90987 6.47993 2.84883C6.54065 2.78779 6.61275 2.73939 6.6921 2.70639C6.77145 2.67339 6.85649 2.65645 6.94236 2.65653Z" fill="#387EB8"/>
    <path d="M9.05364 16.4999C12.8617 16.4999 12.6239 14.84 12.6239 14.84L12.6197 13.1202H8.98568V12.6039H14.0629C14.0629 12.6039 16.4997 12.8817 16.4997 9.01929C16.4997 5.15696 14.3728 5.29394 14.3728 5.29394H13.1035V7.08618C13.1035 7.08618 13.172 9.22411 11.0106 9.22411H7.40643C7.40643 9.22411 5.38149 9.19123 5.38149 11.1914V14.4986C5.38149 14.4986 5.074 16.4999 9.05358 16.4999H9.05364ZM11.0574 15.3435C10.9715 15.3436 10.8865 15.3267 10.8071 15.2937C10.7278 15.2607 10.6557 15.2123 10.5949 15.1512C10.5342 15.0902 10.4861 15.0177 10.4533 14.938C10.4204 14.8582 10.4036 14.7727 10.4036 14.6864C10.4036 14.6001 10.4204 14.5146 10.4532 14.4348C10.4861 14.355 10.5342 14.2825 10.5949 14.2215C10.6556 14.1605 10.7277 14.1121 10.8071 14.0791C10.8865 14.0461 10.9715 14.0291 11.0574 14.0292C11.1433 14.0291 11.2283 14.046 11.3077 14.079C11.387 14.112 11.4591 14.1604 11.5198 14.2215C11.5805 14.2825 11.6287 14.355 11.6615 14.4348C11.6943 14.5145 11.7112 14.6 11.7111 14.6863C11.7112 14.7726 11.6943 14.8581 11.6615 14.9379C11.6287 15.0177 11.5805 15.0901 11.5198 15.1512C11.4591 15.2122 11.387 15.2606 11.3077 15.2936C11.2283 15.3266 11.1433 15.3436 11.0574 15.3435Z" fill="#FFE052"/>
</svg>
