<svg width="18" height="18" viewBox="0 0 18 18" fill="none" xmlns="http://www.w3.org/2000/svg">
    <path fill-rule="evenodd" clip-rule="evenodd" d="M7.76567 14.2516C6.30128 13.4544 5.5647 12.8358 4.63135 11.8242C4.52554 11.7097 4.49859 11.583 4.38065 11.4556C4.12996 11.184 3.8887 10.8882 3.68316 10.5768C3.61645 10.4771 3.54097 10.3592 3.49312 10.2507L3.46617 10.19L3.41158 10.157C3.14269 9.99122 3.4628 9.73109 3.13056 9.80994C2.74441 9.90024 2.31514 11.0688 2.25786 12.023C2.20933 12.8048 2.37848 13.1431 2.96411 13.6593C3.79436 14.3932 5.1954 15.1264 5.89559 15.3892C6.13078 15.4768 6.39697 15.5671 6.6443 15.6069C6.83434 15.6338 7.08233 15.6399 7.19353 15.4586C7.22655 15.4316 7.2872 15.3919 7.31416 15.371C7.40176 15.3137 7.486 15.2564 7.57091 15.1958C7.67065 15.123 7.77309 15.0415 7.85463 14.9511C7.9483 14.8453 8.02041 14.716 8.00558 14.5704C7.99076 14.4221 7.89102 14.3197 7.76432 14.2503L7.76567 14.2516Z" fill="#0C3555"/>
    <path fill-rule="evenodd" clip-rule="evenodd" d="M7.79803 14.4661C4.07538 12.4465 3.30241 10.3418 3.30241 10.3418C3.04296 10.1821 2.63794 11.4558 2.50519 12.1142C2.39062 12.6608 2.54158 12.9175 2.92503 13.2976C4.08145 14.4479 6.93206 15.7883 7.14636 15.3658C7.20971 15.2418 8.30008 14.7411 7.7987 14.4661H7.79803Z" fill="#A4CAD3"/>
    <path fill-rule="evenodd" clip-rule="evenodd" d="M6.1479 15.2329C6.14184 15.2417 6.37433 14.9492 6.36557 14.958C6.2874 15.0449 6.21462 15.1352 6.14453 15.2309C6.14588 15.2309 6.14655 15.2322 6.1479 15.2329Z" fill="#6998B9"/>
    <path fill-rule="evenodd" clip-rule="evenodd" d="M5.91549 14.7072C4.68966 14.1876 3.12553 13.3816 2.49139 12.2252C2.48869 12.2225 2.48869 12.2191 2.48532 12.2131C2.48195 12.207 2.47926 12.2043 2.47656 12.1982C2.47656 12.2191 2.47656 12.2373 2.47926 12.2589C2.47926 12.2798 2.48195 12.298 2.48195 12.3195C2.47589 12.4557 2.49678 12.6033 2.50891 12.7118C2.57563 12.9139 2.71445 13.0864 2.92538 13.2947C3.67746 14.0407 5.14185 14.8676 6.13519 15.2423C6.13788 15.2382 6.14125 15.2349 6.14395 15.2308C6.01254 15.1735 6.05567 14.7672 5.91482 14.7072H5.91549Z" fill="#6998B9"/>
    <path fill-rule="evenodd" clip-rule="evenodd" d="M8.73748 13.9915C7.19222 13.9018 5.9091 14.9922 5.37402 16.613C6.71577 17.489 8.31831 17.9992 10.0401 17.9992C10.8293 17.9992 11.5935 17.8914 12.3193 17.6912C11.9473 15.6668 10.4883 14.0919 8.73748 13.9908V13.9915Z" fill="#0C3555"/>
    <path fill-rule="evenodd" clip-rule="evenodd" d="M8.72606 13.9917C7.19697 13.9027 5.91117 14.9897 5.36328 16.6057C5.74067 16.8531 6.13894 17.0714 6.55474 17.2581L6.75422 17.0566L8.56567 17.3221C8.56567 17.3221 8.71461 17.6341 8.90532 17.9246C9.27664 17.9738 9.65605 18 10.0408 18C10.8293 18 11.5928 17.8929 12.3173 17.6927C11.9453 15.669 10.524 14.0968 8.72606 13.9917Z" fill="#A4CAD3"/>
    <path fill-rule="evenodd" clip-rule="evenodd" d="M10.2142 14.5258C9.915 14.6856 11.2318 15.377 11.1745 15.6944C11.1718 15.7005 11.1624 15.8635 11.1624 15.8696C11.1139 16.3434 9.99385 16.3467 10.2324 16.7511C10.4676 17.1494 10.7877 17.5153 11.126 17.832C11.1563 17.8603 11.1887 17.8893 11.2204 17.9176C12.1847 17.7842 13.0972 17.491 13.9308 17.0644C13.4975 16.4188 12.9799 15.8123 12.6537 15.4707C11.5607 14.323 9.88468 14.3837 10.2142 14.5258Z" fill="#0C3555"/>
    <path fill-rule="evenodd" clip-rule="evenodd" d="M10.5039 14.7048C10.2081 14.7654 10.2775 15.0552 10.1986 15.4777C10.1016 16.4636 11.0033 17.4105 11.5256 17.8714C12.3187 17.7326 13.0742 17.4839 13.7757 17.1423C13.4334 16.6827 13.0135 16.1961 12.5593 15.7197C11.8652 14.9918 10.9467 14.6178 10.5032 14.7054L10.5039 14.7048Z" fill="#A4CAD3"/>
    <path fill-rule="evenodd" clip-rule="evenodd" d="M7.35938 17.5699C7.37959 17.5766 7.40048 17.5834 7.4207 17.5901C7.39914 17.5652 7.38701 17.5483 7.38701 17.5483C7.38701 17.5483 7.3769 17.5571 7.35938 17.5699Z" fill="#FEE7AE"/>
    <path fill-rule="evenodd" clip-rule="evenodd" d="M8.58088 17.1199C8.63209 17.2197 8.83426 17.564 9.02768 17.8322L9.07013 17.7386C8.84639 17.4279 8.63546 17.0714 8.63546 17.0714L8.62064 17.0411L6.74584 16.7661L6.34082 17.1583C6.36575 17.1705 6.39136 17.1819 6.4163 17.1934L6.75729 16.8564L8.58088 17.1192V17.1199Z" fill="#0C3555"/>
    <path fill-rule="evenodd" clip-rule="evenodd" d="M7.73576 6.20186C7.66635 6.25308 7.59357 6.31643 7.52415 6.38584L7.36713 5.70654L5.01791 6.5341C4.77058 6.58868 4.48957 6.73627 4.34131 6.9445C4.251 7.0712 4.18766 7.23428 4.14183 7.38254C3.62832 8.3004 1.73532 11.7636 2.40249 12.7664C2.6835 13.1923 2.30612 12.2077 2.5959 12.0116C2.80144 11.8728 3.16063 12.265 3.64382 12.2589C3.79477 12.2562 4.3622 12.0143 4.42285 11.9631C4.4862 11.9119 4.83932 12.0358 4.78204 11.9779C4.65198 11.8478 4.68567 11.7481 4.73958 11.7002C4.8993 11.5554 5.08664 11.3619 5.24097 11.211C5.54018 10.9151 5.82996 10.6099 6.10424 10.2931C6.33404 10.0303 6.56317 9.74997 6.75658 9.45951L7.04029 9.03361C7.10701 8.98846 7.17035 8.93993 7.22764 8.88535C7.48439 8.65555 7.71083 8.36307 7.913 8.08812C8.15156 7.76801 8.37799 7.43915 8.61925 7.12174C8.85444 6.81646 9.10513 6.50849 9.39222 6.24904L9.69749 5.96802L9.29315 5.87771C8.73449 5.75372 8.19132 5.85345 7.73509 6.20051L7.73576 6.20186Z" fill="#0C3555"/>
    <path fill-rule="evenodd" clip-rule="evenodd" d="M7.41367 6.86901L7.20813 5.99023L5.0732 6.74231C5.0732 6.74231 4.69244 6.81779 4.51453 7.06848C4.45119 7.15878 4.39053 7.30098 4.33932 7.46406C3.14381 9.60775 2.46789 11.3289 2.47665 12.1982C2.47934 12.2043 2.48271 12.207 2.48541 12.2131C2.4881 12.2191 2.4881 12.2218 2.49147 12.2252C2.58784 12.397 2.70308 12.5635 2.83584 12.7205C3.63576 12.5938 5.81921 10.4771 6.58005 9.33549L6.88802 8.87656C6.96619 8.82535 7.03291 8.77413 7.0875 8.72561C7.72771 8.15818 8.39487 6.86901 9.24938 6.09267C8.00266 5.81502 7.41636 6.8717 7.41367 6.86833V6.86901Z" fill="#A4CAD3"/>
    <path fill-rule="evenodd" clip-rule="evenodd" d="M8.48706 6.51267C8.42034 6.49178 8.36643 6.45539 8.32128 6.41293C8.27612 6.37047 8.2431 6.31926 8.22491 6.26197C8.20065 6.19256 8.20065 6.11102 8.2276 6.02948L8.10967 5.98096C8.07328 6.09283 8.07328 6.20132 8.10698 6.29769C8.13124 6.37586 8.17369 6.44595 8.23367 6.50323C8.29095 6.56051 8.36373 6.60567 8.44797 6.6333C8.57803 6.67845 8.73168 6.68182 8.89814 6.62723L8.85568 6.50323C8.71686 6.54838 8.59016 6.54838 8.48706 6.51199V6.51267Z" fill="#0C3555"/>
    <path fill-rule="evenodd" clip-rule="evenodd" d="M12.3528 0H7.72985C7.558 0 7.42188 0.138824 7.42188 0.307974V6.04492C7.42188 6.21407 7.5607 6.35289 7.72985 6.35289H12.3528C12.522 6.35289 12.6608 6.21407 12.6608 6.04492V0.307974C12.6608 0.138824 12.522 0 12.3528 0Z" fill="#0C3555"/>
    <path d="M12.3507 0.214355H7.72844C7.6767 0.214355 7.63477 0.256294 7.63477 0.308028V6.04497C7.63477 6.09671 7.6767 6.13865 7.72844 6.13865H12.3507C12.4025 6.13865 12.4444 6.09671 12.4444 6.04497V0.308028C12.4444 0.256294 12.4025 0.214355 12.3507 0.214355Z" fill="#FFF5D1"/>
    <path fill-rule="evenodd" clip-rule="evenodd" d="M7.63477 4.60484V6.04497C7.63477 6.09619 7.67722 6.13864 7.72844 6.13864H12.348C12.3993 6.13864 12.4417 6.09619 12.4417 6.04497V2.58447C11.5266 4.26047 9.87819 5.08735 7.63477 4.60416V4.60484Z" fill="#FAC47B"/>
    <path fill-rule="evenodd" clip-rule="evenodd" d="M7.85914 0.570752V3.38767H7.85645V4.01844L9.93611 0.48584H7.94338C7.89823 0.48584 7.85914 0.524926 7.85914 0.570078V0.570752Z" fill="white"/>
    <path fill-rule="evenodd" clip-rule="evenodd" d="M7.339 4.07047C7.23051 4.1008 7.15772 4.17627 7.09168 4.26388C7.02227 4.35418 6.95892 4.44786 6.88951 4.53883C6.84436 4.59612 6.79921 4.65946 6.75675 4.72011C6.62669 4.90746 6.32815 5.39941 6.29782 5.62315L6.28906 5.69862L7.01957 6.88806L7.78648 5.57193C8.2663 5.79229 8.6922 5.68649 9.1572 5.36032L9.42609 5.17028L7.87408 4.24029C7.71976 4.14999 7.52702 4.01993 7.33968 4.07114L7.339 4.07047Z" fill="#0C3555"/>
    <path fill-rule="evenodd" clip-rule="evenodd" d="M7.0563 4.6682C6.76922 5.03953 6.52459 5.53148 6.50977 5.64941L7.01385 6.4709L7.70527 5.28415C8.19453 5.58943 8.57798 5.50789 9.03084 5.18442L7.75986 4.42358C7.32182 4.16076 7.3946 4.23354 7.0563 4.6682Z" fill="#A4CAD3"/>
    <path fill-rule="evenodd" clip-rule="evenodd" d="M7.24902 6.4762C7.24026 6.31042 7.23082 6.14396 7.21869 5.97818C7.20993 5.86632 7.2005 5.74569 7.1823 5.63382C7.13984 5.38919 7.04954 5.02057 6.75639 4.97272C6.56635 4.9397 6.40327 5.06302 6.2732 5.18432C6.14045 5.30832 6.02251 5.44984 5.90188 5.57991L5.8291 5.65538L6.22468 8.30922L6.51783 8.07402C7.00102 7.68451 7.30293 7.7027 7.2726 6.97826C7.26384 6.80911 7.25778 6.64333 7.24834 6.47687L7.24902 6.4762Z" fill="#0C3555"/>
    <path fill-rule="evenodd" clip-rule="evenodd" d="M6.96769 5.67365C6.81067 4.79218 6.46968 5.2875 6.05859 5.72823L6.37533 7.90831C6.90097 7.48847 7.07551 7.57945 7.05193 6.99045C7.03373 6.55242 7.00071 5.85493 6.96769 5.67432V5.67365Z" fill="#A4CAD3"/>
    <path fill-rule="evenodd" clip-rule="evenodd" d="M6.57865 5.89059C6.518 5.6372 6.3913 5.33192 6.09883 5.28947C5.91485 5.26251 5.7484 5.35281 5.61294 5.46738C5.48018 5.58194 5.36562 5.72683 5.26588 5.86902C5.21736 5.93844 5.17221 6.00785 5.12975 6.08063L5.06641 6.18643L5.8515 7.59961C5.84881 7.66026 5.83937 7.7263 5.83668 7.78359C5.81848 7.96756 5.79759 8.18523 5.93642 8.33012C5.99976 8.39953 6.08737 8.43592 6.18104 8.44199L6.26865 8.44806L6.33537 8.39347C6.62852 8.14884 6.84551 7.853 6.89066 7.46685C6.92099 7.20403 6.86977 6.94121 6.80306 6.68782C6.73364 6.41893 6.64334 6.15948 6.57932 5.89059H6.57865Z" fill="#0C3555"/>
    <path fill-rule="evenodd" clip-rule="evenodd" d="M5.31348 6.18988L6.06555 7.5424C6.08038 7.7776 5.92673 8.2035 6.19562 8.22507C7.02587 7.53364 6.59389 6.87524 6.37083 5.93919C6.15923 5.06648 5.61876 5.6703 5.31415 6.18988H5.31348Z" fill="#A4CAD3"/>
    <path fill-rule="evenodd" clip-rule="evenodd" d="M5.96855 6.19858C5.83242 5.83333 5.32564 5.78211 4.99341 5.84209C4.74878 5.88724 4.60996 6.144 4.51965 6.35223C4.41385 6.59349 4.33837 6.85631 4.24807 7.10701L4.20898 7.2155L4.2784 7.30918C4.35657 7.41161 4.46844 7.10364 4.54728 7.04029C4.67398 6.93786 4.77372 6.99514 4.9395 6.88664C4.97589 6.86575 5.12078 7.3577 5.1538 7.33074C5.19895 7.42441 5.24747 7.52078 5.29262 7.61445C5.20232 7.77754 5.15986 7.97702 5.16593 8.15493C5.17806 8.3389 5.2623 8.50199 5.41932 8.60509C5.48603 8.64755 5.57634 8.68057 5.65451 8.68933L5.78727 8.70416L6.26439 7.94332C6.34256 7.81932 6.42411 7.68656 6.42748 7.53561C6.43017 7.39678 6.36076 7.25459 6.31291 7.1252C6.19498 6.81723 6.08311 6.50656 5.96855 6.19858Z" fill="#0C3555"/>
    <path fill-rule="evenodd" clip-rule="evenodd" d="M5.77532 6.27126C5.68502 6.03607 5.29214 6.00574 5.03875 6.0509C4.78536 6.09942 4.64047 6.65471 4.45312 7.18036C4.74897 7.57594 5.21396 6.96269 5.21733 6.95999C5.32583 7.18642 5.435 7.41016 5.5435 7.63322C5.5435 7.63322 5.36829 7.8327 5.38918 8.1373C5.40737 8.44258 5.68502 8.47223 5.68502 8.47223L6.08936 7.82596C6.27671 7.53012 6.24369 7.51798 6.11969 7.19788C5.96604 6.79354 5.84811 6.464 5.77532 6.27126Z" fill="#A4CAD3"/>
    <path fill-rule="evenodd" clip-rule="evenodd" d="M8.20508 1.8149V2.23137H9.02657V5.2599H9.62432V1.31958H9.20785C9.08385 1.61879 8.68557 1.78188 8.20508 1.8149Z" fill="#0C3555"/>
    <path fill-rule="evenodd" clip-rule="evenodd" d="M10.9083 1.26221C10.3106 1.26221 9.94531 1.63959 9.94531 2.25891V4.31836C9.94531 4.93701 10.3106 5.31507 10.9083 5.31507C11.5061 5.31507 11.8713 4.93768 11.8713 4.31836V2.25891C11.8713 1.64027 11.5061 1.26221 10.9083 1.26221ZM11.2736 4.31162C11.2736 4.60477 11.1435 4.76179 10.9083 4.76179C10.6731 4.76179 10.5431 4.60477 10.5431 4.31162V2.2643C10.5431 1.97115 10.6731 1.81413 10.9083 1.81413C11.1435 1.81413 11.2736 1.97115 11.2736 2.2643V4.31162Z" fill="#0C3555"/>
    <path fill-rule="evenodd" clip-rule="evenodd" d="M4.42013 7.01662C4.38104 7.00449 4.33858 7.02538 4.32645 7.06514C4.2813 7.24305 4.18156 7.36435 4.14248 7.55102C4.08519 7.83204 4.09126 8.1818 4.08789 8.46012C4.23008 8.02815 4.32308 7.56315 4.46865 7.11029C4.48078 7.07121 4.45652 7.02875 4.42013 7.01662Z" fill="#0C3555"/>
    <path fill-rule="evenodd" clip-rule="evenodd" d="M7.91031 7.86838C7.85573 7.84749 7.79575 7.87108 7.77149 7.92567C7.63873 8.2424 7.27617 8.43918 7.11039 8.57194C6.72694 8.88261 6.34012 8.95809 5.89062 9.11511C6.5369 9.07871 7.00189 8.99448 7.4305 8.61372C7.59628 8.46546 7.84697 8.2606 7.96827 8.0099C7.99253 7.95532 7.96557 7.89197 7.91099 7.86771L7.91031 7.86838Z" fill="#0C3555"/>
    <path fill-rule="evenodd" clip-rule="evenodd" d="M4.51935 11.6187C4.46207 11.6187 4.41355 11.6672 4.41355 11.7245C4.40748 12.1713 4.28955 12.585 4.20801 13.0231H4.2107C4.20194 13.0561 4.57596 12.2926 4.62718 11.7245C4.62718 11.6672 4.57866 11.6187 4.51868 11.6187H4.51935Z" fill="#0C3555"/>
    <path fill-rule="evenodd" clip-rule="evenodd" d="M4.6366 7.34284C4.38322 7.32195 4.16891 7.55715 4.15678 7.86849C4.14465 8.17916 4.34076 8.45142 4.59752 8.47231C4.85427 8.4932 5.06858 8.258 5.07734 7.94666C5.08947 7.63599 4.89336 7.36373 4.6366 7.34284Z" fill="#0C3555"/>
    <path fill-rule="evenodd" clip-rule="evenodd" d="M4.63515 7.47889C4.44174 7.46406 4.27865 7.64198 4.26989 7.88054C4.26113 8.1191 4.41209 8.32464 4.60482 8.33947C4.79823 8.35429 4.96132 8.17638 4.97008 7.93782C4.97884 7.69926 4.82789 7.49372 4.63515 7.47889Z" fill="#A4CAD3"/>
    <path fill-rule="evenodd" clip-rule="evenodd" d="M4.43548 7.65431C4.32361 7.77831 4.31485 7.99261 4.41729 8.13144C4.51972 8.27363 4.69493 8.28576 4.8068 8.16446C4.91867 8.04046 4.92743 7.82616 4.825 7.68734C4.72256 7.54514 4.54735 7.53301 4.43548 7.65431Z" fill="#0C3555"/>
    <path fill-rule="evenodd" clip-rule="evenodd" d="M4.47444 7.70276C4.38413 7.80249 4.37807 7.97434 4.45961 8.08621C4.54115 8.20077 4.67998 8.2129 4.77028 8.11316C4.85789 8.01342 4.86395 7.84158 4.78241 7.72971C4.70087 7.61784 4.56204 7.60571 4.47444 7.70276Z" fill="#A4CAD3"/>
    <path fill-rule="evenodd" clip-rule="evenodd" d="M4.74979 7.69336L4.42969 8.04379C4.43845 8.05862 4.44788 8.07075 4.45664 8.08624C4.46877 8.09838 4.47753 8.11051 4.48966 8.12264L4.80977 7.77221C4.80101 7.75738 4.79157 7.74525 4.78281 7.72975C4.77405 7.71762 4.76192 7.70549 4.74979 7.69336Z" fill="#0C3555"/>
    <path fill-rule="evenodd" clip-rule="evenodd" d="M8.198 5.46799C8.1104 5.4289 7.7539 5.30827 7.68786 5.23819C7.57599 5.12025 7.54903 4.92752 7.4493 4.77319L7.44053 4.8608C7.43447 5.38308 7.69123 5.42553 8.08074 5.6459C8.12926 5.67622 8.19531 5.66409 8.2317 5.61557C8.26202 5.56436 8.24652 5.50101 8.19868 5.46731L8.198 5.46799Z" fill="#0C3555"/>
    <path fill-rule="evenodd" clip-rule="evenodd" d="M7.70877 5.30222C7.6124 5.28402 7.35834 5.21461 7.27073 5.21191C7.19525 5.29952 7.61779 5.49293 7.65149 5.50776C7.70877 5.52258 7.76605 5.48956 7.78155 5.43498C7.79974 5.37769 7.76672 5.31704 7.70877 5.30222Z" fill="#0C3555"/>
    <path fill-rule="evenodd" clip-rule="evenodd" d="M4.22471 8.56596C4.1371 8.49925 4.0131 8.52081 3.94975 8.60842C3.56361 9.23043 2.5851 11.1989 2.62418 11.9267L2.66934 12.2226C2.94429 11.2804 3.66267 9.67117 4.26986 8.84092C4.3332 8.75331 4.31231 8.62931 4.22471 8.56596Z" fill="#D3E7EB"/>
    <path fill-rule="evenodd" clip-rule="evenodd" d="M6.12618 7.69321C6.06889 7.72961 5.99611 7.75387 5.91457 7.75993C5.8364 7.766 5.74879 7.75117 5.66994 7.70871C5.57358 7.6575 5.48597 7.56652 5.42869 7.42163L5.30469 7.46678C5.3741 7.64469 5.48597 7.75993 5.6066 7.82328C5.70903 7.87786 5.8182 7.89606 5.92064 7.88999C6.02307 7.88393 6.12011 7.85091 6.19559 7.80239C6.27376 7.75387 6.32835 7.68445 6.34654 7.60628L6.21985 7.57932C6.21109 7.62178 6.1747 7.66087 6.12618 7.69389V7.69321Z" fill="#0C3555"/>
    <path fill-rule="evenodd" clip-rule="evenodd" d="M6.00469 6.85102C6.01346 6.9238 5.98987 6.98378 5.94741 7.0323C5.90833 7.07475 5.85104 7.10777 5.78433 7.12867C5.71761 7.14956 5.64213 7.15562 5.56666 7.14686C5.44872 7.13204 5.33416 7.07408 5.26475 6.96289L5.15625 7.0296C5.24992 7.17449 5.39751 7.25334 5.55183 7.27423C5.64213 7.28636 5.73918 7.28029 5.82341 7.25334C5.91102 7.22638 5.9865 7.18056 6.04378 7.12058C6.11319 7.0451 6.14958 6.94873 6.13408 6.8335L6.00402 6.85169L6.00469 6.85102Z" fill="#0C3555"/>
    <path fill-rule="evenodd" clip-rule="evenodd" d="M6.54546 6.45258C6.55152 6.48897 6.55152 6.52199 6.54546 6.55232C6.5367 6.61297 6.50637 6.65812 6.46392 6.69114C6.41877 6.72753 6.36148 6.74842 6.29477 6.75786C6.24018 6.76662 6.1829 6.76392 6.12562 6.75516L6.10742 6.88523C6.17683 6.89736 6.24625 6.89736 6.31296 6.88792C6.40057 6.87579 6.48211 6.84547 6.54546 6.79425C6.61218 6.73966 6.66002 6.66756 6.67552 6.57388C6.68159 6.53143 6.68159 6.48628 6.67552 6.43506L6.54546 6.45325V6.45258Z" fill="#0C3555"/>
    <path fill-rule="evenodd" clip-rule="evenodd" d="M6.69595 7.20746C6.68382 7.40357 6.64137 7.47635 6.59621 7.51813C6.54769 7.56059 6.48435 7.58485 6.41493 7.59361C6.38461 7.5963 6.35159 7.5963 6.31857 7.5963L6.3125 7.723C6.35496 7.723 6.39404 7.723 6.43313 7.71693C6.5268 7.7048 6.61441 7.66841 6.68045 7.61113C6.74986 7.55048 6.79232 7.46624 6.79838 7.35774C6.80108 7.33079 6.79838 7.30046 6.79569 7.27013L6.69595 7.20679V7.20746Z" fill="#0C3555"/>
    <path fill-rule="evenodd" clip-rule="evenodd" d="M7.01085 6.08124C7.01354 6.10213 7.01354 6.1237 7.01354 6.14189C7.01085 6.21467 6.98322 6.26859 6.94076 6.30767C6.89561 6.34676 6.83226 6.37439 6.75948 6.38315C6.73253 6.38922 6.7022 6.38922 6.67188 6.38922V6.51928C6.70827 6.51928 6.74466 6.51928 6.78037 6.51321C6.87674 6.49839 6.96435 6.46469 7.03107 6.40472C7.09778 6.34137 7.14293 6.25646 7.14563 6.14526C7.14563 6.121 7.14293 6.09068 7.13956 6.06372L7.0095 6.08192L7.01085 6.08124Z" fill="#0C3555"/>
    <path fill-rule="evenodd" clip-rule="evenodd" d="M7.21896 6.82397L7.0889 6.84217C7.09159 6.84823 7.09159 6.85093 7.09159 6.857C7.10035 6.9446 7.07677 7.01132 7.03094 7.05647C6.98579 7.10499 6.91638 7.13195 6.83753 7.14408C6.83147 7.14677 6.8254 7.14677 6.81934 7.14677L6.83147 7.27953C6.84023 7.27953 6.84966 7.27684 6.85573 7.27684C6.96153 7.26201 7.0579 7.21956 7.12461 7.15014C7.1974 7.07467 7.23311 6.97493 7.22098 6.84487C7.22098 6.8361 7.21829 6.83004 7.21829 6.82397H7.21896Z" fill="#0C3555"/>
    <path fill-rule="evenodd" clip-rule="evenodd" d="M4.9969 7.21006C4.97601 7.26464 4.93356 7.41223 4.99421 7.41829C5.19368 7.44525 5.25703 6.80235 5.31701 6.69385C5.14516 6.79359 5.1054 7.04697 4.9969 7.21006Z" fill="#0C3555"/>
    <path fill-rule="evenodd" clip-rule="evenodd" d="M8.20803 7.17372C8.09347 7.17642 7.9998 7.13127 7.92095 7.05916C7.83941 6.98368 7.77875 6.87788 7.73967 6.75994C7.70934 6.66627 7.69452 6.56384 7.69115 6.4668H7.56445C7.56445 6.57866 7.58265 6.69323 7.61904 6.79903C7.66419 6.93516 7.73697 7.06185 7.83334 7.15216C7.93308 7.24853 8.05977 7.30648 8.21073 7.30311C8.27138 7.30311 8.33136 7.29098 8.39807 7.27009L8.35562 7.14609C8.3044 7.16429 8.25318 7.17305 8.20736 7.17305L8.20803 7.17372Z" fill="#0C3555"/>
    <path fill-rule="evenodd" clip-rule="evenodd" d="M4.33924 11.3983C4.27859 11.492 4.22131 11.5796 4.16739 11.6551C4.09192 11.7609 4.01913 11.8485 3.95916 11.9024C3.75699 12.0924 3.66601 12.2191 3.70847 12.2468C3.71116 12.2495 3.71453 12.2495 3.71723 12.2495C3.71992 12.2468 3.72599 12.2434 3.72936 12.2407C3.90727 12.1106 4.09461 11.9597 4.29072 11.7939C5.10008 11.1025 6.0058 10.1994 6.58267 9.33616L6.82729 8.96484C6.30165 9.10704 5.83396 9.1158 5.54688 9.14275C5.54688 9.14275 4.86421 10.5708 4.33924 11.3983Z" fill="#6998B9"/>
    <path fill-rule="evenodd" clip-rule="evenodd" d="M5.76097 15.5651C5.72458 15.6103 5.73065 15.677 5.7758 15.7134C5.82432 15.7525 5.89036 15.7437 5.92675 15.6986C6.20777 15.2639 6.13229 15.0914 5.87217 14.6506C5.94495 15.0853 6.03188 15.2302 5.7603 15.5658L5.76097 15.5651Z" fill="#0C3555"/>
    <path fill-rule="evenodd" clip-rule="evenodd" d="M11.0114 17.452C10.8726 17.0079 10.818 16.4256 10.9029 15.9755C10.9575 15.6823 11.0809 15.2146 11.3531 14.9848C11.531 14.755 11.7339 15.0603 11.7999 14.9121C11.6672 14.6614 10.9818 14.3446 10.8308 14.2873C10.8187 14.2813 10.7284 14.5832 10.6469 14.6708C10.0639 15.2867 9.08273 15.9357 8.28551 15.9478C7.75717 15.9539 7.4283 15.7484 7.36158 15.2113C7.33126 14.9727 7.35889 14.7193 7.40404 14.4868C7.41617 14.4174 7.4465 14.3359 7.46739 14.2665C7.48828 14.1997 7.55162 14.1425 7.56982 14.0791C7.57858 14.0549 7.58465 14.0306 7.59071 14.0063C7.6116 13.9127 7.57858 13.8163 7.47278 13.7981L7.06844 13.8042C7.02328 13.7954 7.01991 13.8129 6.9842 13.8466C6.76046 14.0461 6.34129 14.7584 6.1088 15.1722C6.08791 15.1809 6.09667 15.2113 6.07847 15.2173C6.00299 15.2443 5.92145 15.2746 5.87293 15.3413C5.70985 15.5711 5.58922 15.8575 5.49554 16.1231C5.44096 16.2787 5.39244 16.4364 5.34863 16.5955C6.69577 17.4823 8.30774 17.9992 10.0417 17.9992C10.4508 17.9992 10.8531 17.9696 11.2473 17.9143C11.2453 17.8759 11.2284 17.8395 11.2001 17.8105C11.122 17.7377 11.0431 17.5477 11.0128 17.4513L11.0114 17.452Z" fill="#0C3555"/>
    <path fill-rule="evenodd" clip-rule="evenodd" d="M10.6884 16.9115C10.5859 16.5644 10.6944 16.1871 10.7699 15.8333C10.8697 15.3595 11.1743 14.912 11.3528 14.819C11.3798 14.8042 11.3859 14.7826 11.3616 14.7705L10.9357 14.571C10.9357 14.571 9.53195 16.1136 8.27849 16.09C7.03177 16.0658 7.14903 14.97 7.24876 14.4504C7.27572 14.3176 7.41455 13.9767 7.39702 13.9733L7.07692 13.9524C6.72042 14.3567 6.5816 14.8069 6.25543 15.2928C6.21904 15.3474 6.03169 15.3622 5.98654 15.4255C5.78302 15.7099 5.6105 16.1695 5.47168 16.6763C6.79321 17.514 8.35936 17.9992 10.0401 17.9992C10.3959 17.9992 10.7463 17.9769 11.0914 17.9345L11.0927 17.919C11.117 17.6171 10.7969 17.2788 10.6884 16.9108V16.9115Z" fill="#C92F27"/>
    <path fill-rule="evenodd" clip-rule="evenodd" d="M12.8101 9.62866C12.8063 9.63366 12.8026 9.63866 12.7988 9.64428C12.8051 9.63928 12.8088 9.63428 12.8101 9.62866Z" fill="#0C3555"/>
    <path fill-rule="evenodd" clip-rule="evenodd" d="M10.7484 10.3383C9.38375 11.4859 7.11607 14.0461 8.03729 14.6802C8.49353 14.9943 9.86088 15.245 9.96668 14.5623C10.2315 12.8654 11.677 11.1807 12.7984 9.64551C12.7074 9.71627 12.1259 9.69672 11.6332 9.80118C11.4971 9.83151 11.1379 10.0094 10.7484 10.339V10.3383Z" fill="#0C3555"/>
    <path fill-rule="evenodd" clip-rule="evenodd" d="M11.6673 9.95763C11.5797 9.97582 11.4409 10.0513 11.3654 10.0965C11.1841 10.1989 11.0123 10.3263 10.8519 10.4617C10.3478 10.8842 9.86731 11.3674 9.42994 11.8594C9.20351 12.1161 8.98314 12.379 8.7776 12.6505C8.59632 12.8918 8.42111 13.1459 8.27352 13.4114C8.14076 13.6499 7.87525 14.1817 8.03496 14.4532C8.05922 14.4957 8.09224 14.5287 8.13133 14.5557C8.32744 14.6918 8.65361 14.7794 8.8861 14.8151C9.13679 14.8542 9.75881 14.9027 9.81272 14.5402C9.90909 13.9121 10.1598 13.3083 10.459 12.753C10.7791 12.1552 11.1686 11.5878 11.5703 11.0379C11.854 10.6423 12.1532 10.2528 12.443 9.86328C12.2435 9.87811 12.0474 9.89361 11.8513 9.92393C11.7906 9.93269 11.7273 9.94482 11.6673 9.95695V9.95763Z" fill="#0C3555"/>
    <path fill-rule="evenodd" clip-rule="evenodd" d="M8.82352 12.5845C8.8087 12.6054 8.7932 12.6269 8.775 12.6478C8.76624 12.6599 8.75681 12.6721 8.74805 12.6842C8.86261 12.7509 9.03176 12.8264 9.21911 12.9019C9.55741 13.0407 9.95905 13.1829 10.2064 13.2611C10.2246 13.222 10.2394 13.1856 10.2576 13.1465C10.013 13.0683 9.60525 12.9228 9.26426 12.7839C9.08635 12.7112 8.92596 12.6418 8.82352 12.5845Z" fill="#A4CAD3"/>
    <path fill-rule="evenodd" clip-rule="evenodd" d="M8.35948 13.2524C8.33859 13.2888 8.31702 13.3252 8.29883 13.3582C8.45854 13.4971 8.72137 13.6238 9.00508 13.7208C9.33394 13.8327 9.6965 13.9021 9.96202 13.9048C9.97415 13.8623 9.98628 13.8232 10.0011 13.7808C9.75379 13.7895 9.38247 13.7174 9.04417 13.6029C8.75708 13.5065 8.49763 13.3825 8.35881 13.2524H8.35948Z" fill="#A4CAD3"/>
    <path fill-rule="evenodd" clip-rule="evenodd" d="M10.5669 10.7036C10.5279 10.74 10.4915 10.773 10.4551 10.8034C10.5912 10.8337 10.79 10.8937 10.9955 10.9907C11.1404 11.0601 11.2853 11.1477 11.4093 11.2562C11.4336 11.2232 11.4578 11.1868 11.4821 11.1538C11.352 11.0419 11.1984 10.9516 11.0474 10.8788C10.8756 10.7973 10.7031 10.74 10.5676 10.7036H10.5669Z" fill="#A4CAD3"/>
    <path fill-rule="evenodd" clip-rule="evenodd" d="M9.39055 11.8992C9.36022 11.9356 9.3272 11.972 9.29688 12.005C9.53544 12.0596 9.76187 12.135 9.97617 12.2314C10.1783 12.3217 10.3718 12.4369 10.5557 12.5724C10.5766 12.536 10.5982 12.4996 10.6191 12.4639C10.4317 12.3251 10.2329 12.2105 10.0274 12.1168C9.82185 12.0265 9.61091 11.9538 9.39055 11.8992Z" fill="#A4CAD3"/>
    <path fill-rule="evenodd" clip-rule="evenodd" d="M10.0216 11.2258C9.98519 11.2622 9.9488 11.2986 9.91309 11.3377C10.0762 11.3559 10.248 11.4071 10.4205 11.4887C10.6139 11.5823 10.804 11.7151 10.9819 11.8842C11.0062 11.8478 11.0304 11.8148 11.0513 11.7784C10.8673 11.6066 10.6706 11.4705 10.4744 11.3741C10.3208 11.3013 10.1692 11.2501 10.0216 11.2258Z" fill="#A4CAD3"/>
    <path fill-rule="evenodd" clip-rule="evenodd" d="M10.1571 13.6445C10.0486 13.6506 9.98189 13.7321 9.96976 13.8285C9.96976 13.8467 9.96706 13.8676 9.96706 13.8858C9.96437 13.9188 9.961 13.9552 9.95493 13.9916C9.95224 14.0037 9.94887 14.0158 9.9428 14.028C9.87609 14.1641 9.55059 14.212 9.41716 14.2241C9.31742 14.2328 9.21499 14.2362 9.11188 14.2302C8.88814 14.2214 8.65565 14.1756 8.44741 14.094C8.38406 14.0698 8.19672 13.9855 8.15426 13.9249C8.14213 13.8703 8.12731 13.7739 8.15426 13.7254C8.19335 13.662 8.2358 13.5475 8.19941 13.4868C8.15696 13.4201 8.04239 13.4262 7.96422 13.4383C7.49316 13.5111 7.36647 13.813 7.32738 14.2295C7.32132 14.3137 7.32738 14.3953 7.35164 14.4768C7.44532 14.7875 7.74992 14.9903 8.04307 15.1076C8.38406 15.2437 8.78571 15.3037 9.15703 15.2976C9.6072 15.2915 10.1079 15.1918 10.4732 14.9263C10.6632 14.7902 10.7993 14.5914 10.8236 14.3589C10.8445 14.1567 10.7811 13.9512 10.6302 13.8096C10.5001 13.689 10.3343 13.6317 10.1564 13.6439L10.1571 13.6445Z" fill="#0C3555"/>
    <path fill-rule="evenodd" clip-rule="evenodd" d="M10.1691 13.832C10.1543 13.832 10.1718 14.0011 10.1179 14.1096C9.99121 14.3724 9.48376 14.4385 9.10368 14.4203C8.51805 14.3933 8.01667 14.1487 7.97152 13.9822C7.9048 13.741 7.99241 13.623 7.99241 13.623C7.62109 13.6803 7.54831 13.9128 7.51865 14.2451C7.44318 15.0753 9.46893 15.4197 10.3571 14.7768C10.8403 14.4263 10.6348 13.8043 10.1698 13.832H10.1691Z" fill="#A4CAD3"/>
    <path fill-rule="evenodd" clip-rule="evenodd" d="M8.21795 14.4601C8.14854 14.4574 8.09126 14.5113 8.08789 14.578C8.08789 14.6447 8.13911 14.702 8.20852 14.7047C8.27793 14.7074 8.33521 14.6535 8.33858 14.5868C8.33858 14.52 8.28737 14.4628 8.21795 14.4601Z" fill="#0C3555"/>
    <path fill-rule="evenodd" clip-rule="evenodd" d="M8.73846 14.629C8.66905 14.6263 8.61177 14.6775 8.6084 14.7469C8.6084 14.8137 8.65962 14.8709 8.72903 14.8736C8.79844 14.8763 8.85572 14.8224 8.85909 14.7557C8.85909 14.689 8.80787 14.6317 8.73846 14.629Z" fill="#0C3555"/>
    <path fill-rule="evenodd" clip-rule="evenodd" d="M7.80487 14.1998C7.73546 14.1971 7.67817 14.2483 7.6748 14.3177C7.6748 14.3845 7.72602 14.4417 7.79543 14.4444C7.86485 14.4471 7.92213 14.3932 7.9255 14.3265C7.9255 14.2598 7.87428 14.2025 7.80487 14.1998Z" fill="#0C3555"/>
    <path fill-rule="evenodd" clip-rule="evenodd" d="M9.31952 14.6769C9.2501 14.6742 9.19282 14.7254 9.18945 14.7948C9.18945 14.8615 9.24067 14.9188 9.31008 14.9215C9.37949 14.9242 9.43678 14.8703 9.44014 14.8036C9.44014 14.7368 9.38893 14.6796 9.31952 14.6769Z" fill="#0C3555"/>
    <path fill-rule="evenodd" clip-rule="evenodd" d="M10.3039 14.3273C10.2372 14.3246 10.1772 14.3758 10.1738 14.4452C10.1738 14.5119 10.225 14.5692 10.2945 14.5719C10.3639 14.5746 10.4212 14.5207 10.4245 14.4539C10.4245 14.3872 10.3733 14.3299 10.3039 14.3273Z" fill="#0C3555"/>
    <path fill-rule="evenodd" clip-rule="evenodd" d="M9.86053 14.5711C9.79382 14.5685 9.73384 14.6197 9.73047 14.6891C9.73047 14.7558 9.78169 14.8131 9.8511 14.8158C9.92051 14.8185 9.97779 14.7646 9.98116 14.6978C9.98116 14.6311 9.92994 14.5738 9.86053 14.5711Z" fill="#0C3555"/>
    <path fill-rule="evenodd" clip-rule="evenodd" d="M7.96056 13.8345C7.96933 13.7772 7.93361 13.726 7.87633 13.7139C7.81904 13.7051 7.76446 13.7442 7.7557 13.7981C7.68292 14.7281 9.85086 14.749 10.0894 14.2449L10.0409 14.2779C9.53683 14.6189 7.88778 14.4262 7.96056 13.8338V13.8345Z" fill="#D3E7EB"/>
    <path fill-rule="evenodd" clip-rule="evenodd" d="M10.719 6.10207C9.43253 6.16879 8.44526 7.26725 8.51198 8.55373C8.5787 9.84022 9.67716 10.8302 10.9636 10.7608C12.2501 10.6941 13.2401 9.59559 13.1707 8.30911C13.104 7.02262 12.0055 6.03266 10.719 6.10207Z" fill="#0C3555"/>
    <path d="M12.6883 9.51909C13.2895 8.49919 12.9501 7.185 11.9302 6.58376C10.9103 5.98251 9.59614 6.3219 8.9949 7.34179C8.39365 8.36169 8.73304 9.67588 9.75293 10.2771C10.7728 10.8784 12.087 10.539 12.6883 9.51909Z" fill="#6998B9"/>
    <path fill-rule="evenodd" clip-rule="evenodd" d="M10.7268 6.28945C9.70042 6.34404 8.88163 7.11094 8.72461 8.08271C8.93015 9.10907 9.86283 9.85508 10.9411 9.7978C11.9674 9.74321 12.7862 8.97631 12.9432 8.00454C12.7377 6.98088 11.805 6.23217 10.7268 6.28945Z" fill="#A4CAD3"/>
    <path fill-rule="evenodd" clip-rule="evenodd" d="M9.29423 7.07734C9.25178 7.08341 9.06443 7.12856 9.02265 7.13462C8.70592 7.5302 8.621 8.24858 8.6365 8.5478C8.65133 8.84364 8.70929 8.64147 8.71468 8.68662C9.15878 8.19737 9.30973 8.33013 9.53617 8.44806C9.76866 8.56869 9.83201 9.00673 10.448 9.0667C11.0639 9.12736 11.8247 8.12796 11.3597 7.6569C10.9945 7.28827 10.016 7.01669 9.29423 7.07734Z" fill="#0C3555"/>
    <path fill-rule="evenodd" clip-rule="evenodd" d="M10.8083 7.9172C10.6183 7.92596 10.47 8.08904 10.4821 8.28245C10.4909 8.4725 10.654 8.62075 10.8474 8.60862C11.0374 8.59986 11.1857 8.43678 11.1736 8.24337C11.1614 8.05333 10.9984 7.90507 10.8083 7.9172Z" fill="#A4CAD3"/>
    <path fill-rule="evenodd" clip-rule="evenodd" d="M11.1417 9.40507C11.0783 9.40507 10.9274 9.41114 10.864 9.39631C10.5951 9.27232 10.0729 9.35723 9.961 9.03106C9.87945 8.7898 9.72243 8.48183 9.42929 8.46363C9.24801 8.45487 9.10042 8.56337 8.98855 8.69343C8.85849 8.84439 8.75875 9.04386 8.68327 9.22784C8.55321 9.54457 8.17919 9.90107 7.9312 10.1275C7.79844 10.2515 7.65355 10.3903 7.54775 10.5352C7.45744 10.6592 7.38197 10.8129 7.44531 10.9672C7.51473 11.139 7.70477 11.1909 7.87122 11.2057C8.44471 11.263 8.96699 11.0939 9.50139 10.9065C9.71906 10.8311 9.93606 10.7495 10.1537 10.6653C10.4765 10.5386 10.8088 10.3998 11.114 10.2333C11.298 10.1336 11.6121 9.95835 11.6848 9.75011C11.6997 9.70159 11.6997 9.65038 11.6848 9.60185C11.6154 9.39631 11.3162 9.40844 11.1417 9.40575V9.40507Z" fill="#0C3555"/>
    <path fill-rule="evenodd" clip-rule="evenodd" d="M10.7876 9.57133C10.5464 9.4534 9.94189 9.55313 9.78217 9.09758C9.53755 8.39132 9.1514 8.58406 8.86095 9.30581C8.76458 9.53561 8.55567 9.81596 8.06102 10.2722C7.57514 10.7163 7.43901 10.9784 7.89187 11.0243C8.43504 11.0789 8.93642 10.9097 9.4405 10.7345C10.2829 10.4413 11.4123 9.97028 11.506 9.69263C11.5545 9.54437 10.9049 9.62928 10.7876 9.572V9.57133Z" fill="#FAC47B"/>
    <path fill-rule="evenodd" clip-rule="evenodd" d="M11.093 8.83759C10.8935 8.88611 10.655 8.9279 10.4501 8.90094C10.3234 8.88611 10.2237 8.84366 10.1212 8.76818C10.0309 8.70146 9.94601 8.61723 9.86447 8.54175C9.7526 8.43595 9.63804 8.34227 9.50528 8.2641C9.4325 8.22164 9.35432 8.19469 9.27009 8.19132C9.107 8.18256 8.96211 8.2641 8.84755 8.37529C8.71479 8.50536 8.61775 8.68327 8.54833 8.85242C8.43984 9.11524 7.84208 9.65841 7.62711 9.85519C7.58465 9.89427 7.5395 9.93336 7.49704 9.97312C7.307 10.1423 7.1109 10.3141 6.93838 10.4988C6.80562 10.641 6.62434 10.858 6.70588 11.0662C6.81775 11.3411 7.26724 11.2899 7.49974 11.2623C7.99506 11.2016 8.55642 10.9873 9.01265 10.7885C9.45676 10.5924 9.90625 10.366 10.32 10.1153C10.4589 10.0311 10.6071 9.9374 10.7338 9.8343C10.8093 9.77095 10.8996 9.68604 10.9178 9.58697C10.936 9.57215 10.9542 9.56002 10.9724 9.55058C11.0236 9.50813 11.0782 9.46904 11.1294 9.42995C11.2022 9.37537 11.2776 9.32145 11.3437 9.2608C11.4374 9.17926 11.531 9.07076 11.4704 8.938C11.3976 8.78435 11.2258 8.80524 11.093 8.83827V8.83759Z" fill="#0C3555"/>
    <path fill-rule="evenodd" clip-rule="evenodd" d="M11.1283 9.01881C9.99276 9.29039 9.9867 8.77755 9.40107 8.42375C9.17127 8.28493 8.90912 8.45408 8.71571 8.92177C8.62204 9.15157 8.24466 9.53502 7.74934 9.99058C7.10306 10.5856 6.2937 11.2137 7.47438 11.0715C8.51624 10.9475 10.3425 9.95756 10.6781 9.63139C10.8109 9.50132 11.5933 8.90694 11.1283 9.01813V9.01881Z" fill="#FEE7AE"/>
    <path fill-rule="evenodd" clip-rule="evenodd" d="M11.279 8.78362C10.971 8.79845 10.7358 9.06127 10.7507 9.36925C10.7655 9.67722 11.0283 9.91241 11.3363 9.89759C11.6443 9.88276 11.8795 9.61994 11.8646 9.31196C11.8498 9.00399 11.587 8.7688 11.279 8.78362Z" fill="#0C3555"/>
    <path fill-rule="evenodd" clip-rule="evenodd" d="M11.2831 8.9166C11.0479 8.92873 10.8693 9.1282 10.8814 9.3634C10.8936 9.59859 11.093 9.77717 11.3282 9.76504C11.5634 9.75291 11.742 9.55344 11.7299 9.31825C11.7178 9.08305 11.5183 8.90447 11.2831 8.9166Z" fill="#A4CAD3"/>
    <path fill-rule="evenodd" clip-rule="evenodd" d="M11.0605 9.11528C10.9365 9.25141 10.9486 9.46234 11.0848 9.58634C11.2209 9.71034 11.4318 9.69821 11.5558 9.56208C11.6798 9.42595 11.6677 9.21502 11.5316 9.09102C11.3927 8.96702 11.1811 8.97915 11.0605 9.11528Z" fill="#0C3555"/>
    <path fill-rule="evenodd" clip-rule="evenodd" d="M11.1081 9.161C11.0084 9.2695 11.0178 9.43865 11.129 9.53838C11.2375 9.63812 11.4067 9.62869 11.5064 9.51749C11.6028 9.40899 11.594 9.23985 11.4855 9.14011C11.377 9.04037 11.2079 9.0498 11.1081 9.161Z" fill="#A4CAD3"/>
    <path fill-rule="evenodd" clip-rule="evenodd" d="M11.4432 9.10913L11.0928 9.49865C11.1015 9.51347 11.1137 9.5256 11.1292 9.53773C11.1413 9.54986 11.1561 9.55862 11.1716 9.56806L11.522 9.17854C11.5099 9.16372 11.4978 9.15159 11.4857 9.13946C11.4735 9.12733 11.4587 9.11857 11.4432 9.10913Z" fill="#0C3555"/>
    <path fill-rule="evenodd" clip-rule="evenodd" d="M10.9577 8.02823C10.8762 8.03093 10.8128 8.10371 10.8155 8.18525C10.8182 8.26679 10.891 8.33014 10.9725 8.32744C11.0541 8.32475 11.1174 8.25197 11.1147 8.17042C11.112 8.08619 11.0392 8.02216 10.9577 8.02823Z" fill="#0C3555"/>
    <path fill-rule="evenodd" clip-rule="evenodd" d="M9.04508 7.79567C8.96961 7.77478 8.87594 7.87721 8.83685 8.02547C8.79776 8.17036 8.83078 8.30649 8.90626 8.32469C8.98174 8.34558 9.07541 8.24314 9.1145 8.09489C9.15358 7.95 9.12326 7.81387 9.04508 7.79567Z" fill="#A4CAD3"/>
    <path fill-rule="evenodd" clip-rule="evenodd" d="M9.07995 7.90148C9.04693 7.89272 9.00717 7.93787 8.98965 8.00122C8.97482 8.06456 8.98695 8.12185 9.01997 8.13128C9.05299 8.14071 9.09275 8.09489 9.11028 8.03154C9.12847 7.96819 9.11297 7.91091 9.07995 7.90148Z" fill="#0C3555"/>
    <path fill-rule="evenodd" clip-rule="evenodd" d="M11.1527 6.38312C10.8596 6.32853 10.8023 6.3346 10.5186 6.39525C11.0442 6.55834 10.4161 6.36493 10.9202 6.50712C11.7895 6.75175 12.3603 7.31917 12.4116 8.2404C12.4176 8.35833 12.5174 8.44864 12.6319 8.44257C12.7499 8.43988 12.8402 8.34014 12.8341 8.2222C12.7135 7.26189 12.1184 6.56171 11.152 6.38312H11.1527Z" fill="#D3E7EB"/>
    <path fill-rule="evenodd" clip-rule="evenodd" d="M9.13863 8.49932C9.02676 8.46024 8.90613 8.51752 8.86704 8.62939C8.6615 9.20018 8.50179 9.2696 8.07318 9.69213C7.73825 10.0244 7.36963 10.3445 7.125 10.7522C7.53271 10.5284 7.90673 10.209 8.27266 9.91856C8.81043 9.49266 8.98228 9.41449 9.27206 8.77428C9.31114 8.66241 9.25386 8.54178 9.1393 8.49932H9.13863Z" fill="white"/>
    <path fill-rule="evenodd" clip-rule="evenodd" d="M16.2279 15.3476C16.2232 15.3314 16.2185 15.3153 16.2138 15.2991C16.1956 15.2324 16.1504 15.1845 16.081 15.1481C16.0203 15.1178 15.9543 15.1117 15.8876 15.1333C15.1294 15.3806 14.3625 15.351 13.6442 14.9911C13.4238 14.8792 13.2156 14.7438 13.0282 14.5834C12.9554 14.5227 12.8833 14.4567 12.82 14.3839C12.7688 14.3233 12.696 14.2936 12.6178 14.2963C12.5396 14.299 12.4695 14.3354 12.4244 14.3987C12.3671 14.4769 12.2977 14.5497 12.231 14.6164C12.0591 14.7916 11.8624 14.9453 11.6514 15.0726C10.9661 15.4891 10.2019 15.5828 9.4262 15.3988C9.35948 15.3806 9.29344 15.3928 9.23616 15.4291C9.17887 15.4655 9.13979 15.5194 9.12429 15.5862C8.95379 16.351 8.86551 17.1341 8.85742 17.9179C9.24424 17.9718 9.63915 18.0001 10.0408 18.0001C12.4756 18.0001 14.6719 16.9818 16.2279 15.3483V15.3476Z" fill="#0C3555"/>
    <path fill-rule="evenodd" clip-rule="evenodd" d="M16.1758 15.4001C16.1678 15.3738 16.1603 15.3468 16.1523 15.3199C16.1374 15.2687 16.1071 15.2323 16.0586 15.208C16.0134 15.1838 15.9649 15.1811 15.9137 15.1959C15.138 15.4493 14.3556 15.4162 13.6217 15.051C13.398 14.9391 13.1837 14.8003 12.9937 14.6372C12.9209 14.5739 12.84 14.5011 12.776 14.429C12.7369 14.3838 12.6857 14.3596 12.625 14.3623C12.5644 14.365 12.5165 14.3926 12.4802 14.4404C12.4229 14.5159 12.3474 14.5975 12.2807 14.6642C12.1055 14.8421 11.9033 14.9991 11.689 15.1292C10.9888 15.5551 10.2098 15.6514 9.41524 15.4614C9.36402 15.4493 9.3155 15.4587 9.27035 15.4857C9.2252 15.5126 9.19757 15.5524 9.18611 15.6036C9.01629 16.3597 8.92733 17.1421 8.91992 17.9265C9.28653 17.9744 9.65987 17.9993 10.0393 17.9993C12.4471 17.9993 14.6225 17.0026 16.1758 15.4001Z" fill="#0C3555"/>
    <path fill-rule="evenodd" clip-rule="evenodd" d="M16.0263 15.5518C16.0087 15.4918 15.9905 15.4318 15.9717 15.3718C13.9217 16.0451 12.6352 14.5537 12.6352 14.5537C12.6352 14.5537 11.4727 16.1448 9.37415 15.6434C9.19354 16.4474 9.11605 17.223 9.11133 17.9495C9.41661 17.9825 9.7266 18.0001 10.04 18.0001C12.371 18.0001 14.4844 17.066 16.0256 15.5518H16.0263Z" fill="#A4CAD3"/>
    <path fill-rule="evenodd" clip-rule="evenodd" d="M15.8081 15.7586C15.7515 15.7127 15.676 15.6912 15.6005 15.7067C14.8606 15.8516 14.1153 15.7579 13.442 15.4196C13.2217 15.3077 13.0134 15.175 12.82 15.024C12.7237 14.9458 12.5848 14.9512 12.4939 15.0361C12.3126 15.2019 12.1131 15.3529 11.9049 15.4803C11.2586 15.8725 10.5247 16.0268 9.776 15.9425C9.64324 15.9277 9.52261 16.018 9.50104 16.1481C9.39389 16.7485 9.33931 17.3598 9.33594 17.971C9.56843 17.9899 9.80295 18 10.0402 18C12.2634 18 14.2885 17.1509 15.8081 15.7586Z" fill="#6998B9"/>
    <path fill-rule="evenodd" clip-rule="evenodd" d="M15.7124 15.8442C15.6861 15.8281 15.6544 15.8213 15.6214 15.8274C14.8511 15.9817 14.0842 15.882 13.3813 15.5315C13.1576 15.4197 12.9372 15.2781 12.7384 15.1238C12.6899 15.0847 12.6205 15.0874 12.5754 15.1299C12.3914 15.3017 12.1831 15.4588 11.9682 15.5888C11.2976 15.9932 10.5402 16.1562 9.76113 16.0659C9.69441 16.0599 9.63443 16.105 9.625 16.1657C9.51852 16.7634 9.46461 17.3713 9.46191 17.9798C9.6533 17.9926 9.84604 18 10.0401 18C12.2175 18 14.2042 17.1853 15.7124 15.8442Z" fill="#0C3555"/>
    <path fill-rule="evenodd" clip-rule="evenodd" d="M13.3274 15.6435C13.1131 15.5377 12.8772 15.3901 12.6629 15.2236C12.4634 15.4076 12.2404 15.5741 12.0348 15.6974C11.3286 16.126 10.5462 16.283 9.74895 16.1927C9.64382 16.7837 9.59059 17.3855 9.58789 17.988C9.7375 17.9961 9.88845 18.0001 10.0401 18.0001C12.1514 18.0001 14.0842 17.2339 15.5749 15.9643C14.81 16.1024 14.0444 16.004 13.3267 15.6435H13.3274Z" fill="#FEE7AE"/>
    <path fill-rule="evenodd" clip-rule="evenodd" d="M13.3267 15.6435C13.1124 15.5377 12.8765 15.3901 12.6622 15.2236C12.4628 15.4076 12.2397 15.5741 12.0342 15.6974C11.3279 16.126 10.5455 16.283 9.74828 16.1927C9.64315 16.7844 9.59059 17.3862 9.58789 17.988C9.7375 17.9961 9.88845 18.0001 10.0394 18.0001C12.1507 18.0001 14.0835 17.2339 15.5742 15.9643C14.8093 16.1024 14.0437 16.004 13.326 15.6435H13.3267Z" fill="#FFF5D1"/>
    <path fill-rule="evenodd" clip-rule="evenodd" d="M9.90019 16.4102C9.83819 16.9662 9.79775 17.5094 9.79102 17.9959C9.87391 17.9986 9.9568 18 10.0404 18C10.4764 18 10.905 17.9669 11.3235 17.9043L12.6989 15.4297C12.6989 15.4297 11.7447 16.5349 9.90019 16.4109V16.4102Z" fill="white"/>
    <path fill-rule="evenodd" clip-rule="evenodd" d="M8.86678 17.5909C8.86948 17.5424 8.86948 17.4946 8.87285 17.446C8.8998 16.9386 8.96046 16.4318 9.05413 15.9304C8.75896 16.0497 8.66933 17.0397 8.64844 17.8868C8.7192 17.8982 8.78996 17.909 8.86072 17.9191V17.8544C8.86072 17.7668 8.86341 17.6792 8.86678 17.5916V17.5909Z" fill="#AB2423"/>
    <path fill-rule="evenodd" clip-rule="evenodd" d="M8.04006 15.1063C7.96458 15.076 7.8891 15.0396 7.81632 14.9978C7.7833 14.9796 7.74961 14.9588 7.71995 14.9372C7.57776 14.8408 7.45444 14.7168 7.38502 14.5625C7.36683 14.6683 7.3547 14.7768 7.34863 14.8853C7.40322 14.9547 7.46657 15.0181 7.53867 15.0726C7.57169 15.0969 7.60539 15.1212 7.64111 15.1454C7.72871 15.2 7.82239 15.2452 7.91606 15.2816C8.27862 15.4264 8.74024 15.4959 9.19041 15.4655C9.20524 15.4507 9.22074 15.4352 9.24163 15.4231C9.29891 15.3867 9.36563 15.3746 9.43167 15.3928C9.47076 15.4015 9.51321 15.4109 9.5523 15.4197C9.63654 15.4049 9.71808 15.3833 9.79693 15.3591C9.92699 15.2836 10.0476 15.1933 10.1622 15.0996C9.52534 15.3772 8.64051 15.3469 8.03938 15.1057L8.04006 15.1063Z" fill="#6998B9"/>
    <path fill-rule="evenodd" clip-rule="evenodd" d="M6.19946 15.4413C6.20822 15.4352 6.34165 15.417 6.35041 15.3961C6.53169 15.0154 6.85179 14.2519 7.16583 13.9587L7.08429 13.9526C7.0661 13.9735 7.04521 13.9978 7.02971 14.0194C6.84573 14.2458 6.71904 14.487 6.5856 14.7411C6.5856 14.7438 6.58291 14.7438 6.58291 14.7472C6.48923 14.9224 6.39287 15.1037 6.26887 15.2876L6.26617 15.2903C6.24528 15.3234 6.16374 15.3416 6.09702 15.3658C6.05457 15.3806 6.01885 15.3961 6.00065 15.4204C6.00065 15.4204 6.00065 15.4231 5.99796 15.4231C5.93461 15.5107 5.87733 15.6131 5.82005 15.7311C5.69133 15.9959 5.57812 16.3275 5.48242 16.6819C5.53027 16.7123 5.57744 16.7419 5.62596 16.7709C5.6947 16.467 5.77085 16.2021 5.85644 16.0121C5.99863 15.698 6.10376 15.4959 6.2008 15.4413H6.19946Z" fill="url(#scorecards_paint0_linear_10_3919)"/>
    <path fill-rule="evenodd" clip-rule="evenodd" d="M8.32119 6.41613C8.33938 6.43096 8.35758 6.44646 8.37577 6.46128C8.41216 6.42489 8.44856 6.3885 8.48427 6.35278H8.2666C8.2848 6.37367 8.29962 6.39524 8.32119 6.41613Z" fill="#6998B9"/>
    <path fill-rule="evenodd" clip-rule="evenodd" d="M8.12273 6.35297H7.90237C7.82419 6.40755 7.75748 6.46753 7.7002 6.52481C7.70626 6.60299 7.72109 6.68453 7.74872 6.76001C7.77904 6.84761 7.81813 6.92916 7.87271 6.9952C7.87878 6.98913 7.88485 6.98307 7.89091 6.97431C7.95763 6.89277 8.11734 6.72968 8.29256 6.55447C8.2656 6.53964 8.24741 6.52414 8.23191 6.50931C8.18675 6.46416 8.14767 6.40958 8.12341 6.35229L8.12273 6.35297Z" fill="#6998B9"/>
    <path fill-rule="evenodd" clip-rule="evenodd" d="M7.57806 6.64547C7.46619 6.77216 7.41497 6.8719 7.41497 6.8719L7.30311 6.39478L7.24582 6.49451C7.25459 6.65423 7.26065 6.81731 7.27009 6.9777C7.29704 7.57545 7.09487 7.66913 6.75051 7.90162C6.65077 8.0856 6.50588 8.24599 6.33403 8.38751L6.26732 8.4421L6.17971 8.43603C6.11299 8.42997 6.05302 8.41177 5.99843 8.37538L5.81445 8.66853H5.82052C6.28821 8.53846 7.01602 8.10986 7.27009 7.78369C7.47563 7.52424 7.62928 7.29444 7.78023 7.09833C7.70745 7.01409 7.65354 6.91099 7.61715 6.79912C7.60232 6.7506 7.58682 6.69668 7.57806 6.64479V6.64547Z" fill="#6998B9"/>
    <path fill-rule="evenodd" clip-rule="evenodd" d="M8.55345 5.22072C8.23065 5.23892 7.8472 5.05764 7.63829 4.93971C7.56888 4.90062 7.51766 4.86693 7.49609 4.85547C7.54731 4.96397 7.58033 5.0819 7.63829 5.1722C7.65042 5.19646 7.66524 5.21735 7.68681 5.23892C7.75353 5.30833 8.10935 5.42896 8.19695 5.46872C8.47797 5.49905 8.74012 5.39324 9.03057 5.18501L8.9524 5.13649C8.88905 5.17288 8.77112 5.20927 8.55412 5.22072H8.55345Z" fill="#6998B9"/>
    <path fill-rule="evenodd" clip-rule="evenodd" d="M7.41943 5.00625L7.33789 5.22055C7.36215 5.22324 7.38911 5.22931 7.41943 5.23537C7.45582 5.24413 7.49221 5.2502 7.52524 5.25963C7.47671 5.18146 7.44976 5.08442 7.441 4.95166L7.42011 5.00625H7.41943Z" fill="#6998B9"/>
    <path fill-rule="evenodd" clip-rule="evenodd" d="M7.30289 5.29883C7.282 5.33522 7.24224 5.4107 7.16406 5.55222C7.17013 5.57917 7.17619 5.6095 7.17889 5.63376C7.18765 5.67621 7.19102 5.72137 7.19708 5.76989C7.20315 5.8393 7.20921 5.91208 7.21528 5.98149C7.21528 5.99632 7.21798 6.00845 7.21798 6.02395C7.22067 6.0509 7.22067 6.07854 7.22404 6.10819L7.2328 6.08999L7.38982 5.81841L7.42015 5.76719L7.5893 5.47741C7.54414 5.45652 7.47743 5.42283 7.42015 5.38711C7.37499 5.36015 7.32984 5.32983 7.30221 5.2995L7.30289 5.29883Z" fill="#6998B9"/>
    <defs>
        <linearGradient id="scorecards_paint0_linear_10_3919" x1="5.99526" y1="13.766" x2="6.86662" y2="17.8983" gradientUnits="userSpaceOnUse">
            <stop stop-color="#C92F27"/>
            <stop offset="1" stop-color="white"/>
        </linearGradient>
    </defs>
</svg>
