<svg width="18" height="18" viewBox="0 0 18 18" fill="none" xmlns="http://www.w3.org/2000/svg">
    <path d="M8.86452 17.8839L3 13.8194V4.3549C3 4.3549 5.20645 3.54199 8.86452 3.54199V17.8839Z" fill="#DADADA"/>
    <path d="M8.86426 3.54199V17.8839L14.6707 13.8194V4.3549C14.6707 4.3549 12.5804 3.54199 8.86426 3.54199Z" fill="#C5C5C5"/>
    <path d="M12.0583 15.6774L11.5357 11.3806H8.80664V17.9419L8.86471 18C9.90987 17.2451 11.0131 16.4903 12.0583 15.6774Z" fill="#393A62"/>
    <path d="M5.66992 15.7357L8.86347 18.0002V11.3228H6.13444L5.66992 15.7357Z" fill="#525379"/>
    <path d="M10.1993 14.458C10.1993 15.2128 9.50251 15.5612 8.8638 15.5612C8.22509 15.5612 7.52832 15.2128 7.52832 14.458" fill="#BB9275"/>
    <path d="M8.86426 13.8774C9.03845 14.2838 9.32877 14.5161 9.79329 14.5161C10.2578 14.5161 10.7223 14.2838 10.8965 13.7032C11.1868 12.8903 11.1868 11.7871 11.1868 11.7871C11.1868 11.7871 12.5223 10.1613 12.5223 9.63867H8.86426V13.8774Z" fill="#C3977D"/>
    <path d="M5.14844 9.63867C5.14844 10.2774 6.42586 11.7871 6.42586 11.7871C6.42586 11.7871 6.42586 12.8903 6.71618 13.7032C6.94844 14.2838 7.41295 14.5161 7.81941 14.5161C8.28392 14.5161 8.63231 14.2838 8.8065 13.8774V9.63867H5.14844Z" fill="#D7B6A0"/>
    <path d="M12.3486 5.9807C11.3615 4.9936 11.0712 2.84521 11.0712 2.84521C10.897 3.54199 10.4905 5.45812 10.4905 5.45812C10.4905 5.45812 9.67761 5.22586 8.80664 5.22586C8.80664 5.22586 8.80664 7.89683 8.80664 13.1807L9.61954 12.6001L9.79374 9.81296L10.6647 10.8001L11.7679 11.1484L12.1744 10.8581C12.3486 10.6259 12.4066 10.3936 12.4647 10.2775C12.6389 9.87102 12.2905 6.85167 12.2905 6.85167C12.1744 6.61941 12.3486 5.9807 12.3486 5.9807Z" fill="#393A62"/>
    <path d="M7.23879 5.51622C7.23879 5.51622 6.83234 3.54203 6.65814 2.90332C6.65814 2.90332 6.42589 5.05171 5.38072 6.0388C5.38072 6.0388 5.55492 6.61945 5.43879 6.90977C5.43879 6.90977 5.0904 9.92913 5.26459 10.3356C5.32266 10.4517 5.38072 10.6259 5.55492 10.9162L5.96137 11.2065L7.06459 10.8582L7.93556 9.813L8.10976 12.6001L8.86459 13.1807V5.2259C7.99363 5.2259 7.23879 5.51622 7.23879 5.51622Z" fill="#525379"/>
    <path d="M11.6512 0.870968C11.8254 1.16129 13.277 4.00645 13.277 4.99355L12.6383 6.67742C12.7544 7.66452 12.9867 9.75484 12.8125 10.1613C12.6963 10.3935 12.3479 10.9161 11.9996 11.3806L12.4641 15.3871L11.8834 15.7935L11.535 12.8903C11.477 13.1806 11.4189 13.529 11.3028 13.7613C11.1867 14.1097 10.8963 14.4 10.606 14.5742C10.606 15.5032 9.73504 15.9677 8.92214 15.9677C8.10924 15.9677 7.23827 15.5032 7.23827 14.5742C6.94795 14.4 6.65762 14.1097 6.54149 13.7613C6.42537 13.471 6.3673 13.1806 6.30924 12.8903L5.96085 15.8516L5.32214 15.4452L5.78666 11.3806C5.43827 10.9742 5.08988 10.4516 4.97375 10.1613C4.79956 9.75484 5.03182 7.66452 5.14795 6.67742L4.45117 4.93548V4.87742C4.45117 3.89032 5.96085 1.16129 6.07698 0.870968L6.54149 0C6.83182 1.97419 7.00601 3.01936 7.00601 3.01936L7.23827 4.64516L7.52859 5.16774C7.81891 5.05161 8.3415 4.93548 8.86408 4.93548C9.38666 4.93548 9.90924 5.05161 10.1996 5.16774L10.4899 4.64516L11.1867 0.0580646L11.6512 0.870968ZM11.0125 11.6129C11.477 11.0903 12.1157 10.2194 12.1738 9.9871C12.2318 9.75484 12.1157 8.12903 11.9415 6.73548V6.67742L12.0576 6.32903C11.6512 5.86452 11.3609 5.28387 11.1286 4.70323V4.87742L10.4318 5.98065L10.1415 5.86452C10.1415 5.86452 9.44472 5.57419 8.80601 5.57419C8.1673 5.57419 7.47053 5.86452 7.47053 5.86452L7.1802 5.98065L6.48343 4.87742V4.76129C6.25117 5.34194 5.96085 5.92258 5.5544 6.32903L5.67053 6.67742V6.73548C5.61246 8.07097 5.49633 9.75484 5.5544 9.9871C5.67053 10.2194 6.30924 11.0903 6.71569 11.6129L6.77375 11.729V11.8452C6.77375 11.8452 6.77375 12.8903 7.06408 13.6452C7.23827 14.1677 7.70279 14.2258 7.87698 14.2258C8.3415 14.2258 8.51569 13.8194 8.51569 13.8194C8.63182 13.5871 8.68988 13.2968 8.68988 12.8323H8.98021C8.98021 13.1806 9.03827 13.529 9.1544 13.8194C9.1544 13.8194 9.32859 14.2258 9.79311 14.2258C9.9673 14.2258 10.4318 14.1677 10.606 13.6452C10.8963 12.8903 10.8963 11.8452 10.8963 11.8452V11.729L11.0125 11.6129Z" fill="#312D50"/>
    <path d="M10.897 8.76782H9.56152C9.56152 9.23234 9.96798 9.58073 10.4325 9.58073C10.897 9.58073 11.3035 9.23234 11.3035 8.76782H10.897Z" fill="#312D50"/>
    <path d="M9.90918 8.76782C9.90918 9.05814 10.1414 9.2904 10.3737 9.2904C10.606 9.2904 10.8382 9.05814 10.8382 8.82589H9.90918V8.76782Z" fill="white"/>
    <path d="M10.3159 8.76758C10.3159 8.76758 10.3739 8.82564 10.3739 8.88371C10.3739 8.94177 10.3159 8.99984 10.2578 8.99984C10.2578 9.0579 10.3739 9.17403 10.432 9.17403C10.5481 9.17403 10.6643 9.11597 10.6643 8.99984C10.6643 8.94177 10.6062 8.76758 10.5481 8.76758H10.3159Z" fill="#312D50"/>
    <path d="M7.76126 8.76758H6.42578C6.42578 9.23209 6.83223 9.58048 7.29675 9.58048C7.76127 9.58048 8.16772 9.23209 8.16772 8.76758H7.76126Z" fill="#312D50"/>
    <path d="M6.77441 8.76758C6.77441 8.99984 7.00667 9.23209 7.23893 9.23209C7.52925 9.23209 7.70345 8.99984 7.70345 8.76758H6.77441Z" fill="white"/>
    <path d="M7.41239 8.76782H7.18013C7.18013 8.76782 7.2382 8.82589 7.2382 8.88395C7.2382 8.94202 7.18013 9.00008 7.12207 9.00008C7.12207 9.05814 7.2382 9.17427 7.29626 9.17427C7.41239 9.17427 7.52852 9.11621 7.52852 9.00008C7.52852 8.88395 7.47046 8.76782 7.41239 8.76782Z" fill="#312D50"/>
    <path d="M10.8385 8.36141C10.8966 8.30334 11.3611 7.78076 10.7224 7.78076C10.1417 7.78076 9.73527 8.24528 9.61914 8.36141H10.8385Z" fill="#C3977D"/>
    <path d="M8.10961 8.36141C7.99348 8.24528 7.58703 7.78076 7.00638 7.78076C6.36767 7.78076 6.83219 8.30334 6.89025 8.36141H8.10961Z" fill="#D7B6A0"/>
    <path d="M5.08984 4.87743C5.14791 4.35485 5.67049 3.13549 6.19307 2.09033L6.3092 3.01936C6.25113 3.36775 6.01888 4.7613 5.38017 5.63227L5.08984 4.87743Z" fill="#D7B6A0"/>
    <path d="M11.4189 2.9613L11.5351 2.09033C12.0577 3.13549 12.5802 4.35485 12.6383 4.87743L12.348 5.63227C11.6512 4.64517 11.4189 3.07743 11.4189 2.9613Z" fill="#C3977D"/>
    <path d="M8.45801 14.6903C8.57414 14.7484 8.69027 14.8065 8.86446 14.8065C9.03865 14.8065 9.15478 14.7484 9.27091 14.6903C9.15478 14.6323 9.09672 14.6323 9.03865 14.5742C8.98059 14.5742 8.92252 14.5742 8.86446 14.5742C8.80639 14.5742 8.74833 14.5742 8.69027 14.5742C8.6322 14.6323 8.57414 14.6903 8.45801 14.6903Z" fill="white"/>
    <path d="M8.86405 15.387C9.21244 15.387 9.73502 15.2128 9.85115 14.8064C9.85115 14.8064 9.85115 14.8064 9.79308 14.8064C9.73502 14.8064 9.67695 14.8064 9.61889 14.8064C9.4447 15.0387 9.15437 15.1548 8.86405 15.1548C8.57373 15.1548 8.2834 15.0967 8.10921 14.8064C8.05115 14.8064 7.99308 14.8064 7.93502 14.8064C7.93502 14.8064 7.93502 14.8064 7.87695 14.8064C7.99308 15.2128 8.51566 15.387 8.86405 15.387Z" fill="#C3977D"/>
</svg>
